<svg width="21" height="15" viewBox="0 0 21 15" fill="none" xmlns="http://www.w3.org/2000/svg">
<path d="M19.5 0H1.5C1.10218 0 0.720644 0.158035 0.43934 0.43934C0.158035 0.720644 0 1.10218 0 1.5V13.5C0 13.8978 0.158035 14.2794 0.43934 14.5607C0.720644 14.842 1.10218 15 1.5 15H19.5C19.8978 15 20.2794 14.842 20.5607 14.5607C20.842 14.2794 21 13.8978 21 13.5V1.5C21 1.10218 20.842 0.720644 20.5607 0.43934C20.2794 0.158035 19.8978 0 19.5 0ZM19.5 13.5H1.5V1.5H19.5V13.5ZM18 7.5C18 7.69891 17.921 7.88968 17.7803 8.03033C17.6397 8.17098 17.4489 8.25 17.25 8.25H3.75C3.55109 8.25 3.36032 8.17098 3.21967 8.03033C3.07902 7.88968 3 7.69891 3 7.5C3 7.30109 3.07902 7.11032 3.21967 6.96967C3.36032 6.82902 3.55109 6.75 3.75 6.75H17.25C17.4489 6.75 17.6397 6.82902 17.7803 6.96967C17.921 7.11032 18 7.30109 18 7.5ZM18 4.5C18 4.69891 17.921 4.88968 17.7803 5.03033C17.6397 5.17098 17.4489 5.25 17.25 5.25H3.75C3.55109 5.25 3.36032 5.17098 3.21967 5.03033C3.07902 4.88968 3 4.69891 3 4.5C3 4.30109 3.07902 4.11032 3.21967 3.96967C3.36032 3.82902 3.55109 3.75 3.75 3.75H17.25C17.4489 3.75 17.6397 3.82902 17.7803 3.96967C17.921 4.11032 18 4.30109 18 4.5ZM5.25 10.5C5.25 10.6989 5.17098 10.8897 5.03033 11.0303C4.88968 11.171 4.69891 11.25 4.5 11.25H3.75C3.55109 11.25 3.36032 11.171 3.21967 11.0303C3.07902 10.8897 3 10.6989 3 10.5C3 10.3011 3.07902 10.1103 3.21967 9.96967C3.36032 9.82902 3.55109 9.75 3.75 9.75H4.5C4.69891 9.75 4.88968 9.82902 5.03033 9.96967C5.17098 10.1103 5.25 10.3011 5.25 10.5ZM14.25 10.5C14.25 10.6989 14.171 10.8897 14.0303 11.0303C13.8897 11.171 13.6989 11.25 13.5 11.25H7.5C7.30109 11.25 7.11032 11.171 6.96967 11.0303C6.82902 10.8897 6.75 10.6989 6.75 10.5C6.75 10.3011 6.82902 10.1103 6.96967 9.96967C7.11032 9.82902 7.30109 9.75 7.5 9.75H13.5C13.6989 9.75 13.8897 9.82902 14.0303 9.96967C14.171 10.1103 14.25 10.3011 14.25 10.5ZM18 10.5C18 10.6989 17.921 10.8897 17.7803 11.0303C17.6397 11.171 17.4489 11.25 17.25 11.25H16.5C16.3011 11.25 16.1103 11.171 15.9697 11.0303C15.829 10.8897 15.75 10.6989 15.75 10.5C15.75 10.3011 15.829 10.1103 15.9697 9.96967C16.1103 9.82902 16.3011 9.75 16.5 9.75H17.25C17.4489 9.75 17.6397 9.82902 17.7803 9.96967C17.921 10.1103 18 10.3011 18 10.5Z" fill="#101928"/>
</svg>
