<svg width="108" height="80" viewBox="0 0 108 80" fill="none" xmlns="http://www.w3.org/2000/svg">
<path d="M101.143 26.2181L104.236 30.4361L92.6126 64.2875L89.5195 60.0695L101.143 26.2181Z" fill="#CDC4C4"/>
<path d="M92.6127 64.6C92.5141 64.6 92.4196 64.5528 92.3613 64.4722L89.2669 60.2542C89.2057 60.1722 89.1905 60.0653 89.2238 59.9681L100.847 26.1181C100.885 26.0083 100.981 25.9278 101.096 25.9111C101.211 25.8931 101.327 25.9417 101.395 26.0347L104.489 30.2528C104.55 30.3347 104.565 30.4417 104.532 30.5389L92.9085 64.3889C92.871 64.4986 92.7752 64.5792 92.6599 64.5958C92.6446 64.5986 92.628 64.6 92.6127 64.6ZM89.8682 60.0153L92.5127 63.6194L103.889 30.4889L101.245 26.8847L89.8682 60.0153Z" fill="#E3EFFC"/>
<path d="M104.107 24.7819L107.201 29L94.8556 65.7236L91.5376 61.5056L104.107 24.7819Z" fill="#80BBFF"/>
<path d="M94.8555 66.0361C94.761 66.0361 94.6694 65.993 94.6096 65.9167L91.2916 61.6986C91.2263 61.6153 91.2069 61.5042 91.2416 61.4042L103.811 24.6805C103.849 24.5708 103.944 24.4903 104.06 24.4722C104.175 24.4542 104.29 24.5028 104.358 24.5958L107.453 28.8139C107.512 28.8958 107.529 29.0014 107.497 29.0986L95.1513 65.8222C95.1152 65.9306 95.0207 66.0111 94.9082 66.0306C94.8916 66.0347 94.8735 66.0361 94.8555 66.0361ZM91.8874 61.4458L94.743 65.0764L106.853 29.0555L104.208 25.45L91.8874 61.4458Z" fill="#E3EFFC"/>
<path d="M91.5375 61.5055H26.4583L0.3125 74.6347H65.6167L91.5375 61.5055ZM81.6181 64.5555L77.5847 66.5555L73.5472 68.5569L68.7806 70.918H68.4L65.0389 72.5833H8.51806L11.8792 70.918H11.4917L15.7111 68.8278L19.5653 66.918L23.5986 64.918L28.3653 62.5555H32.7139H37.0597H41.4083H45.7542H50.1028H54.45H58.7972H63.1445H67.4917H71.8389H76.1861H81.3042H85.6514L81.6181 64.5555Z" fill="#1671D9"/>
<path d="M65.6167 74.9472H0.312574C0.16813 74.9472 0.0417407 74.8472 0.00840739 74.7069C-0.0249259 74.5666 0.0431307 74.4208 0.172297 74.3555L26.3167 61.2264C26.3598 61.2041 26.4084 61.193 26.457 61.193H91.5362C91.6806 61.193 91.807 61.2916 91.8403 61.4333C91.8737 61.5736 91.807 61.7194 91.6778 61.7847L65.7584 74.9139C65.714 74.9361 65.6654 74.9472 65.6167 74.9472ZM1.63202 74.3222H65.5431L90.2279 61.818H26.532L1.63202 74.3222ZM65.039 72.8958H8.51813C8.3723 72.8958 8.2473 72.7958 8.21396 72.6542C8.18063 72.5125 8.25007 72.368 8.37924 72.3028L11.1792 70.9153C11.1806 70.8 11.2459 70.6903 11.3529 70.6375L28.2265 62.2736C28.2695 62.2528 28.3167 62.2416 28.3653 62.2416H85.6542C85.7987 62.2416 85.9251 62.3416 85.9584 62.4833C85.9917 62.625 85.9223 62.7694 85.7931 62.8347L68.9195 71.1986C68.8765 71.2194 68.8292 71.2305 68.7806 71.2305H68.4723L65.1765 72.8639C65.1348 72.8847 65.0876 72.8958 65.039 72.8958ZM9.85285 72.2708H64.9667L68.2626 70.6375C68.3056 70.6167 68.3529 70.6055 68.4015 70.6055H68.7098L84.3223 62.8666H28.439L12.1917 70.9194C12.1904 71.0347 12.1251 71.1444 12.0181 71.1972L9.85285 72.2708Z" fill="#E3EFFC"/>
<path d="M65.6167 74.6347H0.3125V79.6097H65.6167V74.6347Z" fill="#80BBFF"/>
<path d="M65.6167 79.9222H0.3125C0.229167 79.9222 0.150001 79.8889 0.0916672 79.8305C0.0333338 79.7722 0 79.693 0 79.6097V74.6347C0 74.4625 0.140278 74.3222 0.3125 74.3222H65.6167C65.7889 74.3222 65.9292 74.4625 65.9292 74.6347V79.6097C65.9292 79.7819 65.7889 79.9222 65.6167 79.9222ZM0.625 79.2972H65.3042V74.9472H0.625V79.2972Z" fill="#E3EFFC"/>
<path d="M81.307 62.5542H76.1903H71.8417H67.4945H63.1473H58.8H54.4528H50.1042H45.7556H41.4098H37.0611H32.7153H28.3653L23.6 64.9167L19.5667 66.9167L15.7125 68.8264L11.4917 70.9167L8.1792 72.5833H65.3014L68.7806 70.9167L73.5459 68.5555L77.582 66.5542L81.6153 64.5555L85.6542 62.5542H81.307Z" fill="#C6DDF7"/>
<path d="M65.3015 72.8958H8.17927C8.03483 72.8958 7.90844 72.7958 7.87511 72.6556C7.84177 72.5153 7.90983 72.3694 8.039 72.3042L11.3515 70.6389L28.2265 62.275C28.2696 62.2542 28.3168 62.2431 28.3654 62.2431H85.6543C85.7987 62.2431 85.9251 62.3431 85.9584 62.4847C85.9918 62.6264 85.9223 62.7708 85.7932 62.8361L68.9195 71.2L65.4348 72.8681C65.3932 72.8847 65.3473 72.8958 65.3015 72.8958ZM9.49733 72.2708H65.2293L68.6459 70.6361L84.3195 62.8667H28.4376L11.6293 71.1972L9.49733 72.2708Z" fill="#E3EFFC"/>
<path d="M76.8343 66.7347L72.7955 68.7361H68.4482L72.4857 66.7347H76.8343Z" fill="#1671D9"/>
<path d="M72.7957 69.0139H68.4485C68.3193 69.0139 68.2068 68.925 68.1776 68.8C68.1485 68.675 68.2096 68.5444 68.3249 68.4875L72.3624 66.4861C72.4012 66.4666 72.4429 66.4569 72.486 66.4569H76.8346C76.9637 66.4569 77.0762 66.5458 77.1054 66.6708C77.1346 66.7958 77.0735 66.9264 76.9582 66.9833L72.9193 68.9847C72.8804 69.0041 72.8387 69.0139 72.7957 69.0139ZM69.6346 68.4583H72.7318L75.6499 67.0125H72.5512L69.6346 68.4583Z" fill="#E3EFFC"/>
<path d="M45.7745 62.7347L41.7384 64.7361H37.3926L41.4287 62.7347H45.7745Z" fill="#1671D9"/>
<path d="M41.7386 65.0139H37.3928C37.2636 65.0139 37.1511 64.925 37.122 64.8C37.0928 64.675 37.1539 64.5444 37.2692 64.4875L41.3067 62.4861C41.3456 62.4666 41.3872 62.4569 41.4303 62.4569H45.7761C45.9053 62.4569 46.0178 62.5458 46.047 62.6708C46.0761 62.7958 46.015 62.9264 45.8997 62.9833L41.8622 64.9847C41.8234 65.0041 41.7817 65.0139 41.7386 65.0139ZM38.5789 64.4583H41.6734L44.59 63.0125H41.4956L38.5789 64.4583Z" fill="#E3EFFC"/>
<path d="M71.8623 62.7347L67.8248 64.7361H63.4775L67.515 62.7347H71.8623Z" fill="#1671D9"/>
<path d="M67.825 65.0139H63.4778C63.3486 65.0139 63.2361 64.925 63.2069 64.8C63.1778 64.675 63.2389 64.5444 63.3542 64.4875L67.3917 62.4861C67.4305 62.4666 67.4722 62.4569 67.5153 62.4569H71.8625C71.9917 62.4569 72.1042 62.5458 72.1333 62.6708C72.1625 62.7958 72.1014 62.9264 71.9861 62.9833L67.9486 64.9847C67.9111 65.0041 67.868 65.0139 67.825 65.0139ZM64.6639 64.4583H67.7611L70.6778 63.0125H67.5806L64.6639 64.4583Z" fill="#E3EFFC"/>
<path d="M51.0578 68.7361L47.0245 70.7361H29.6328L33.6675 68.7361H38.0134H42.3634H46.7106H51.0578Z" fill="#1671D9"/>
<path d="M47.0247 71.0139H29.633C29.5039 71.0139 29.3914 70.925 29.3622 70.8C29.333 70.675 29.3942 70.5444 29.5094 70.4875L33.5442 68.4875C33.583 68.4681 33.6247 68.4583 33.6678 68.4583H51.058C51.1872 68.4583 51.2997 68.5472 51.3289 68.6722C51.358 68.7972 51.2969 68.9278 51.1817 68.9847L47.1483 70.9847C47.1094 71.0042 47.0678 71.0139 47.0247 71.0139ZM30.8192 70.4583H46.9594L49.8719 69.0139H33.733L30.8192 70.4583Z" fill="#E3EFFC"/>
<path d="M20.6237 68.7361L16.5918 70.7361H12.2432L16.2779 68.7361H20.6237Z" fill="#1671D9"/>
<path d="M16.5916 71.0139H12.2444C12.1152 71.0139 12.0027 70.925 11.9735 70.8C11.9444 70.675 12.0055 70.5444 12.1208 70.4875L16.1555 68.4875C16.1944 68.4681 16.236 68.4583 16.2791 68.4583H20.6249C20.7541 68.4583 20.8666 68.5472 20.8958 68.6722C20.9249 68.7972 20.8638 68.9278 20.7485 68.9847L16.7138 70.9847C16.6763 71.0042 16.6333 71.0139 16.5916 71.0139ZM13.4291 70.4583H16.5249L19.4374 69.0139H16.343L13.4291 70.4583Z" fill="#E3EFFC"/>
<path d="M24.6607 66.7347L20.6232 68.7361H16.2773L20.3148 66.7347H24.6607Z" fill="#1671D9"/>
<path d="M20.6234 69.0139H16.2776C16.1484 69.0139 16.0359 68.925 16.0067 68.8C15.9776 68.675 16.0387 68.5444 16.154 68.4875L20.1915 66.4861C20.2303 66.4666 20.272 66.4569 20.3151 66.4569H24.6609C24.7901 66.4569 24.9026 66.5458 24.9317 66.6708C24.9609 66.7958 24.8998 66.9264 24.7845 66.9833L20.747 68.9847C20.7095 69.0041 20.6665 69.0139 20.6234 69.0139ZM17.4637 68.4583H20.5581L23.4748 67.0125H20.3803L17.4637 68.4583Z" fill="#E3EFFC"/>
<path d="M24.9733 68.7361L20.9385 70.7361H16.5913L20.6233 68.7361H24.9733Z" fill="#1671D9"/>
<path d="M20.9388 71.0139H16.5915C16.4624 71.0139 16.3499 70.925 16.3207 70.8C16.2915 70.675 16.3526 70.5444 16.4679 70.4875L20.5013 68.4875C20.5401 68.4681 20.5818 68.4583 20.6249 68.4583H24.9735C25.1027 68.4583 25.2151 68.5472 25.2443 68.6722C25.2735 68.7972 25.2124 68.9278 25.0971 68.9847L21.0624 70.9847C21.0235 71.0042 20.9818 71.0139 20.9388 71.0139ZM17.7763 70.4583H20.8735L23.7874 69.0139H20.6888L17.7763 70.4583Z" fill="#E3EFFC"/>
<path d="M29.0096 66.7347L24.9735 68.7361H20.6235L24.661 66.7347H29.0096Z" fill="#1671D9"/>
<path d="M24.9734 69.0139H20.6247C20.4956 69.0139 20.3831 68.925 20.3539 68.8C20.3247 68.675 20.3859 68.5444 20.5011 68.4875L24.5386 66.4861C24.5775 66.4666 24.6192 66.4569 24.6622 66.4569H29.0108C29.14 66.4569 29.2525 66.5458 29.2817 66.6708C29.3109 66.7958 29.2497 66.9264 29.1345 66.9833L25.097 68.9847C25.0581 69.0041 25.0164 69.0139 24.9734 69.0139ZM21.8095 68.4583H24.9081L27.8247 67.0125H24.7261L21.8095 68.4583Z" fill="#E3EFFC"/>
<path d="M33.0427 64.7361L29.0094 66.7347H24.6608H20.3149L24.3483 64.7361H28.6969H33.0427Z" fill="#1671D9"/>
<path d="M29.0096 67.0125H20.3152C20.186 67.0125 20.0735 66.9236 20.0443 66.7986C20.0152 66.6736 20.0763 66.543 20.1916 66.4861L24.2249 64.4861C24.2638 64.4666 24.3055 64.4569 24.3485 64.4569H33.0429C33.1721 64.4569 33.2846 64.5458 33.3138 64.6708C33.3429 64.7958 33.2818 64.9264 33.1666 64.9833L29.1332 66.9833C29.0957 67.0028 29.0527 67.0125 29.0096 67.0125ZM21.5013 66.4569H28.9457L31.8582 65.0125H24.4138L21.5013 66.4569Z" fill="#E3EFFC"/>
<path d="M33.3551 66.7347L29.319 68.7361H24.9731L29.0093 66.7347H33.3551Z" fill="#1671D9"/>
<path d="M29.3192 69.0139H24.9734C24.8442 69.0139 24.7317 68.925 24.7025 68.8C24.6734 68.675 24.7345 68.5444 24.8498 68.4875L28.8873 66.4861C28.9262 66.4666 28.9678 66.4569 29.0109 66.4569H33.3567C33.4859 66.4569 33.5984 66.5458 33.6275 66.6708C33.6567 66.7958 33.5956 66.9264 33.4803 66.9833L29.4428 68.9847C29.4039 69.0041 29.3623 69.0139 29.3192 69.0139ZM26.1595 68.4583H29.2539L32.1706 67.0125H29.0761L26.1595 68.4583Z" fill="#E3EFFC"/>
<path d="M37.3926 64.7361L33.3551 66.7347H29.0093L33.0426 64.7361H37.3926Z" fill="#1671D9"/>
<path d="M33.3553 67.0125H29.0095C28.8803 67.0125 28.7678 66.9236 28.7387 66.7986C28.7095 66.6736 28.7706 66.543 28.8859 66.4861L32.9192 64.4861C32.9581 64.4666 32.9998 64.4569 33.0428 64.4569H37.3915C37.5206 64.4569 37.6331 64.5458 37.6623 64.6708C37.6915 64.7958 37.6303 64.9264 37.5151 64.9833L33.479 66.9847C33.4415 67.0028 33.3984 67.0125 33.3553 67.0125ZM30.1956 66.4569H33.2915L36.2067 65.0125H33.1095L30.1956 66.4569Z" fill="#E3EFFC"/>
<path d="M41.4291 62.7347L37.393 64.7361H33.043L37.0805 62.7347H41.4291Z" fill="#1671D9"/>
<path d="M37.3928 65.0139H33.0442C32.915 65.0139 32.8025 64.925 32.7733 64.8C32.7442 64.675 32.8053 64.5444 32.9206 64.4875L36.9581 62.4861C36.9969 62.4666 37.0386 62.4569 37.0817 62.4569H41.4303C41.5595 62.4569 41.672 62.5458 41.7011 62.6708C41.7303 62.7958 41.6692 62.9264 41.5539 62.9833L37.5164 64.9847C37.4775 65.0041 37.4358 65.0139 37.3928 65.0139ZM34.2289 64.4583H37.3275L40.2442 63.0125H37.1456L34.2289 64.4583Z" fill="#E3EFFC"/>
<path d="M33.6676 68.7361L29.6329 70.7361H25.2856L29.319 68.7361H33.6676Z" fill="#1671D9"/>
<path d="M29.6331 71.0139H25.2859C25.1567 71.0139 25.0442 70.925 25.015 70.8C24.9859 70.675 25.047 70.5444 25.1623 70.4875L29.1956 68.4875C29.2345 68.4681 29.2761 68.4583 29.3192 68.4583H33.6678C33.797 68.4583 33.9095 68.5472 33.9387 68.6722C33.9678 68.7972 33.9067 68.9278 33.7914 68.9847L29.7567 70.9847C29.7178 71.0042 29.6762 71.0139 29.6331 71.0139ZM26.472 70.4583H29.5692L32.4831 69.0139H29.3845L26.472 70.4583Z" fill="#E3EFFC"/>
<path d="M37.7054 66.7347L33.6679 68.7361H29.3193L33.3554 66.7347H37.7054Z" fill="#1671D9"/>
<path d="M33.6682 69.0139H29.3196C29.1904 69.0139 29.0779 68.925 29.0487 68.8C29.0196 68.675 29.0807 68.5444 29.196 68.4875L33.2335 66.4861C33.2723 66.4666 33.314 66.4569 33.3571 66.4569H37.7057C37.8348 66.4569 37.9473 66.5458 37.9765 66.6708C38.0057 66.7958 37.9446 66.9264 37.8293 66.9833L33.7918 68.9847C33.7543 69.0041 33.7112 69.0139 33.6682 69.0139ZM30.5057 68.4583H33.6043L36.521 67.0125H33.4223L30.5057 68.4583Z" fill="#E3EFFC"/>
<path d="M41.7388 64.7361L37.7055 66.7347H33.3555L37.393 64.7361H41.7388Z" fill="#1671D9"/>
<path d="M37.7053 67.0125H33.3567C33.2275 67.0125 33.115 66.9236 33.0858 66.7986C33.0567 66.6736 33.1178 66.543 33.2331 66.4861L37.2692 64.4861C37.3081 64.4666 37.3497 64.4569 37.3928 64.4569H41.7386C41.8678 64.4569 41.9803 64.5458 42.0095 64.6708C42.0386 64.7958 41.9775 64.9264 41.8622 64.9833L37.8289 66.9833C37.79 67.0028 37.7483 67.0125 37.7053 67.0125ZM34.5428 66.4569H37.64L40.5525 65.0125H37.4567L34.5428 66.4569Z" fill="#E3EFFC"/>
<path d="M42.0513 66.7347L38.0138 68.7361H33.668L37.7055 66.7347H42.0513Z" fill="#1671D9"/>
<path d="M38.014 69.0139H33.6682C33.539 69.0139 33.4265 68.925 33.3974 68.8C33.3682 68.675 33.4293 68.5444 33.5446 68.4875L37.5821 66.4861C37.621 66.4666 37.6626 66.4569 37.7057 66.4569H42.0515C42.1807 66.4569 42.2932 66.5458 42.3224 66.6708C42.3515 66.7958 42.2904 66.9264 42.1751 66.9833L38.1376 68.9847C38.1001 69.0041 38.0571 69.0139 38.014 69.0139ZM34.8543 68.4583H37.9488L40.8654 67.0125H37.771L34.8543 68.4583Z" fill="#E3EFFC"/>
<path d="M46.087 64.7361L42.0509 66.7347H37.7051L41.7384 64.7361H46.087Z" fill="#1671D9"/>
<path d="M42.0511 67.0125H37.7053C37.5761 67.0125 37.4636 66.9236 37.4345 66.7986C37.4053 66.6736 37.4664 66.543 37.5817 66.4861L41.615 64.4861C41.6539 64.4666 41.6956 64.4569 41.7386 64.4569H46.0872C46.2164 64.4569 46.3289 64.5458 46.3581 64.6708C46.3873 64.7958 46.3261 64.9264 46.2109 64.9833L42.1747 66.9833C42.1359 67.0028 42.0942 67.0125 42.0511 67.0125ZM38.8914 66.4569H41.9873L44.9025 65.0125H41.8053L38.8914 66.4569Z" fill="#E3EFFC"/>
<path d="M46.4003 66.7347L42.3642 68.7361H38.0142L42.0517 66.7347H46.4003Z" fill="#1671D9"/>
<path d="M42.364 69.0139H38.0154C37.8862 69.0139 37.7737 68.925 37.7445 68.8C37.7154 68.675 37.7765 68.5444 37.8918 68.4875L41.9293 66.4861C41.9681 66.4666 42.0098 66.4569 42.0529 66.4569H46.4015C46.5306 66.4569 46.6431 66.5458 46.6723 66.6708C46.7015 66.7958 46.6404 66.9264 46.5251 66.9833L42.4876 68.9847C42.4487 69.0041 42.407 69.0139 42.364 69.0139ZM39.2001 68.4583H42.2987L45.2154 67.0125H42.1168L39.2001 68.4583Z" fill="#E3EFFC"/>
<path d="M50.4346 64.7361L46.3999 66.7347H42.0513L46.0874 64.7361H50.4346Z" fill="#1671D9"/>
<path d="M46.4001 67.0125H42.0515C41.9223 67.0125 41.8098 66.9236 41.7807 66.7986C41.7515 66.6736 41.8126 66.543 41.9279 66.4861L45.964 64.4861C46.0029 64.4666 46.0446 64.4569 46.0876 64.4569H50.4348C50.564 64.4569 50.6765 64.5458 50.7057 64.6708C50.7348 64.7958 50.6737 64.9264 50.5584 64.9833L46.5237 66.9833C46.4862 67.0028 46.4432 67.0125 46.4001 67.0125ZM43.2376 66.4569H46.3348L49.2487 65.0125H46.1529L43.2376 66.4569Z" fill="#E3EFFC"/>
<path d="M50.7499 66.7347L46.711 68.7361H42.3638L46.3999 66.7347H50.7499Z" fill="#1671D9"/>
<path d="M46.7112 69.0139H42.364C42.2348 69.0139 42.1223 68.925 42.0932 68.8C42.064 68.675 42.1251 68.5444 42.2404 68.4875L46.2779 66.4861C46.3168 66.4666 46.3584 66.4569 46.4015 66.4569H50.7501C50.8793 66.4569 50.9918 66.5458 51.0209 66.6708C51.0501 66.7958 50.989 66.9264 50.8737 66.9833L46.8348 68.9847C46.7959 69.0041 46.7543 69.0139 46.7112 69.0139ZM43.5487 68.4583H46.6459L49.564 67.0125H46.4654L43.5487 68.4583Z" fill="#E3EFFC"/>
<path d="M54.7832 64.7361L50.7499 66.7347H46.3999L50.4346 64.7361H54.7832Z" fill="#1671D9"/>
<path d="M50.7497 67.0125H46.4011C46.2719 67.0125 46.1594 66.9236 46.1303 66.7986C46.1011 66.6736 46.1622 66.543 46.2775 66.4861L50.3122 64.4861C50.3511 64.4666 50.3928 64.4569 50.4358 64.4569H54.7831C54.9122 64.4569 55.0247 64.5458 55.0539 64.6708C55.0831 64.7958 55.0219 64.9264 54.9067 64.9833L50.8733 66.9833C50.8344 67.0028 50.7928 67.0125 50.7497 67.0125ZM47.5858 66.4569H50.6844L53.5969 65.0125H50.4997L47.5858 66.4569Z" fill="#E3EFFC"/>
<path d="M58.8198 62.7347L54.7837 64.7361H50.4351L54.4726 62.7347H58.8198Z" fill="#1671D9"/>
<path d="M54.7835 65.0139H50.4363C50.3071 65.0139 50.1946 64.925 50.1654 64.8C50.1363 64.675 50.1974 64.5444 50.3127 64.4875L54.3502 62.4861C54.389 62.4666 54.4307 62.4569 54.4738 62.4569H58.821C58.9502 62.4569 59.0626 62.5458 59.0918 62.6708C59.121 62.7958 59.0599 62.9264 58.9446 62.9833L54.9071 64.9847C54.8682 65.0041 54.8265 65.0139 54.7835 65.0139ZM51.621 64.4583H54.7182L57.6349 63.0125H54.5377L51.621 64.4583Z" fill="#E3EFFC"/>
<path d="M55.0957 66.7347L51.0582 68.7361H46.7109L50.7498 66.7347H55.0957Z" fill="#1671D9"/>
<path d="M51.0584 69.0139H46.7112C46.582 69.0139 46.4695 68.925 46.4403 68.8C46.4112 68.675 46.4723 68.5444 46.5876 68.4875L50.6264 66.4861C50.6653 66.4666 50.707 66.4569 50.7501 66.4569H55.0959C55.2251 66.4569 55.3376 66.5458 55.3667 66.6708C55.3959 66.7958 55.3348 66.9264 55.2195 66.9833L51.182 68.9847C51.1431 69.0041 51.1014 69.0139 51.0584 69.0139ZM47.8973 68.4583H50.9931L53.9098 67.0125H50.8153L47.8973 68.4583Z" fill="#E3EFFC"/>
<path d="M59.1301 64.7361L55.0954 66.7347H50.7495L54.7829 64.7361H59.1301Z" fill="#1671D9"/>
<path d="M55.0956 67.0125H50.7497C50.6206 67.0125 50.5081 66.9236 50.4789 66.7986C50.4497 66.6736 50.5109 66.543 50.6261 66.4861L54.6595 64.4861C54.6983 64.4666 54.74 64.4569 54.7831 64.4569H59.1303C59.2595 64.4569 59.372 64.5458 59.4011 64.6708C59.4303 64.7958 59.3692 64.9264 59.2539 64.9833L55.2192 66.9833C55.1803 67.0028 55.1386 67.0125 55.0956 67.0125ZM51.9345 66.4569H55.0289L57.9428 65.0125H54.847L51.9345 66.4569Z" fill="#E3EFFC"/>
<path d="M63.1665 62.7347L59.1304 64.7361H54.7832L58.8193 62.7347H63.1665Z" fill="#1671D9"/>
<path d="M59.1307 65.0139H54.7834C54.6543 65.0139 54.5418 64.925 54.5126 64.8C54.4834 64.675 54.5445 64.5444 54.6598 64.4875L58.6973 62.4861C58.7362 62.4666 58.7779 62.4569 58.8209 62.4569H63.1682C63.2973 62.4569 63.4098 62.5458 63.439 62.6708C63.4682 62.7958 63.407 62.9264 63.2918 62.9833L59.2543 64.9847C59.2154 65.0041 59.1737 65.0139 59.1307 65.0139ZM55.9682 64.4583H59.0654L61.982 63.0125H58.8848L55.9682 64.4583Z" fill="#E3EFFC"/>
<path d="M55.4055 68.7361L51.3707 70.7361H47.0249L51.0582 68.7361H55.4055Z" fill="#1671D9"/>
<path d="M51.371 71.0139H47.0251C46.896 71.0139 46.7835 70.925 46.7543 70.8C46.7251 70.675 46.7862 70.5444 46.9015 70.4875L50.9349 68.4875C50.9737 68.4681 51.0154 68.4583 51.0585 68.4583H55.4057C55.5349 68.4583 55.6474 68.5472 55.6765 68.6722C55.7057 68.7972 55.6446 68.9278 55.5293 68.9847L51.4946 70.9847C51.4557 71.0042 51.414 71.0139 51.371 71.0139ZM48.2112 70.4583H51.3057L54.2196 69.0139H51.1237L48.2112 70.4583Z" fill="#E3EFFC"/>
<path d="M59.4442 66.7347L55.4053 68.7361H51.0581L55.0956 66.7347H59.4442Z" fill="#1671D9"/>
<path d="M55.4056 69.0139H51.0583C50.9292 69.0139 50.8167 68.925 50.7875 68.8C50.7583 68.675 50.8194 68.5444 50.9347 68.4875L54.9722 66.4861C55.0111 66.4666 55.0528 66.4569 55.0958 66.4569H59.4444C59.5736 66.4569 59.6861 66.5458 59.7153 66.6708C59.7445 66.7958 59.6833 66.9264 59.5681 66.9833L55.5292 68.9847C55.4917 69.0041 55.4486 69.0139 55.4056 69.0139ZM52.2444 68.4583H55.3417L58.2597 67.0125H55.1611L52.2444 68.4583Z" fill="#E3EFFC"/>
<path d="M63.4776 64.7361L59.4443 66.7347H55.0957L59.1304 64.7361H63.4776Z" fill="#1671D9"/>
<path d="M59.4445 67.0125H55.0959C54.9668 67.0125 54.8543 66.9236 54.8251 66.7986C54.7959 66.6736 54.857 66.543 54.9723 66.4861L59.007 64.4861C59.0459 64.4666 59.0876 64.4569 59.1307 64.4569H63.4779C63.607 64.4569 63.7195 64.5458 63.7487 64.6708C63.7779 64.7958 63.7168 64.9264 63.6015 64.9833L59.5682 66.9833C59.5293 67.0028 59.4876 67.0125 59.4445 67.0125ZM56.282 66.4569H59.3807L62.2932 65.0125H59.1959L56.282 66.4569Z" fill="#E3EFFC"/>
<path d="M67.5151 62.7347L63.4776 64.7361H59.1304L63.1665 62.7347H67.5151Z" fill="#1671D9"/>
<path d="M63.4778 65.0139H59.1306C59.0014 65.0139 58.8889 64.925 58.8598 64.8C58.8306 64.675 58.8917 64.5444 59.007 64.4875L63.0445 62.4861C63.0834 62.4666 63.125 62.4569 63.1681 62.4569H67.5153C67.6445 62.4569 67.757 62.5458 67.7862 62.6708C67.8153 62.7958 67.7542 62.9264 67.6389 62.9833L63.6014 64.9847C63.5625 65.0041 63.5209 65.0139 63.4778 65.0139ZM60.3167 64.4583H63.4139L66.3306 63.0125H63.2334L60.3167 64.4583Z" fill="#E3EFFC"/>
<path d="M59.7544 68.7361L55.7211 70.7361H51.3711L55.4058 68.7361H59.7544Z" fill="#1671D9"/>
<path d="M55.7209 71.0139H51.3723C51.2431 71.0139 51.1306 70.925 51.1015 70.8C51.0723 70.675 51.1334 70.5444 51.2487 70.4875L55.2834 68.4875C55.3223 68.4681 55.364 68.4583 55.407 68.4583H59.7542C59.8834 68.4583 59.9959 68.5472 60.0251 68.6722C60.0542 68.7972 59.9931 68.9278 59.8779 68.9847L55.8431 70.9847C55.8056 71.0042 55.7626 71.0139 55.7209 71.0139ZM52.557 70.4583H55.6556L58.5681 69.0139H55.4709L52.557 70.4583Z" fill="#E3EFFC"/>
<path d="M63.7905 66.7347L59.7544 68.7361H55.4058L59.4447 66.7347H63.7905Z" fill="#1671D9"/>
<path d="M59.7542 69.0139H55.407C55.2778 69.0139 55.1653 68.925 55.1361 68.8C55.107 68.675 55.1681 68.5444 55.2834 68.4875L59.3222 66.4861C59.3611 66.4666 59.4028 66.4569 59.4459 66.4569H63.7917C63.9209 66.4569 64.0334 66.5458 64.0625 66.6708C64.0917 66.7958 64.0306 66.9264 63.9153 66.9833L59.8778 68.9847C59.8389 69.0041 59.7959 69.0139 59.7542 69.0139ZM56.5917 68.4583H59.6875L62.6042 67.0125H59.5097L56.5917 68.4583Z" fill="#E3EFFC"/>
<path d="M64.1013 68.7361L60.0665 70.7361H55.7207L59.754 68.7361H64.1013Z" fill="#1671D9"/>
<path d="M60.0668 71.0139H55.7209C55.5918 71.0139 55.4793 70.925 55.4501 70.8C55.4209 70.675 55.482 70.5444 55.5973 70.4875L59.6307 68.4875C59.6695 68.4681 59.7112 68.4583 59.7543 68.4583H64.1015C64.2306 68.4583 64.3432 68.5472 64.3723 68.6722C64.4015 68.7972 64.3404 68.9278 64.2251 68.9847L60.189 70.9847C60.1515 71.0042 60.1084 71.0139 60.0668 71.0139ZM56.9057 70.4583H60.0001L62.914 69.0139H59.8182L56.9057 70.4583Z" fill="#E3EFFC"/>
<path d="M68.14 66.7347L64.1011 68.7361H59.7539L63.79 66.7347H68.14Z" fill="#1671D9"/>
<path d="M64.1014 69.0139H59.7541C59.625 69.0139 59.5125 68.925 59.4833 68.8C59.4541 68.675 59.5152 68.5444 59.6305 68.4875L63.668 66.4861C63.7069 66.4666 63.7486 66.4569 63.7916 66.4569H68.1402C68.2694 66.4569 68.3819 66.5458 68.4111 66.6708C68.4403 66.7958 68.3791 66.9264 68.2639 66.9833L64.225 68.9847C64.1861 69.0041 64.1444 69.0139 64.1014 69.0139ZM60.9389 68.4583H64.0361L66.9541 67.0125H63.8555L60.9389 68.4583Z" fill="#E3EFFC"/>
<path d="M76.2099 62.7347L72.1738 64.7361H67.8252L71.8627 62.7347H76.2099Z" fill="#1671D9"/>
<path d="M72.1736 65.0139H67.8264C67.6972 65.0139 67.5847 64.925 67.5556 64.8C67.5264 64.675 67.5875 64.5444 67.7028 64.4875L71.7403 62.4861C71.7792 62.4666 71.8208 62.4569 71.8639 62.4569H76.2111C76.3403 62.4569 76.4528 62.5458 76.482 62.6708C76.5111 62.7958 76.45 62.9264 76.3347 62.9833L72.2972 64.9847C72.2583 65.0041 72.2153 65.0139 72.1736 65.0139ZM69.0111 64.4583H72.1083L75.025 63.0125H71.9278L69.0111 64.4583Z" fill="#E3EFFC"/>
<path d="M68.4484 68.7361L64.415 70.7361H60.0664L64.1011 68.7361H68.4484Z" fill="#1671D9"/>
<path d="M64.4152 71.0139H60.0666C59.9375 71.0139 59.825 70.925 59.7958 70.8C59.7666 70.675 59.8277 70.5444 59.943 70.4875L63.9778 68.4875C64.0166 68.4681 64.0583 68.4583 64.1014 68.4583H68.4486C68.5778 68.4583 68.6902 68.5472 68.7194 68.6722C68.7486 68.7972 68.6875 68.9278 68.5722 68.9847L64.5389 70.9847C64.5 71.0042 64.4583 71.0139 64.4152 71.0139ZM61.2527 70.4583H64.3514L67.2639 69.0139H64.1666L61.2527 70.4583Z" fill="#E3EFFC"/>
<path d="M72.4858 66.7347L68.4483 68.7361H64.1011L68.14 66.7347H72.4858Z" fill="#1671D9"/>
<path d="M68.4485 69.0139H64.1013C63.9721 69.0139 63.8596 68.925 63.8305 68.8C63.8013 68.675 63.8624 68.5444 63.9777 68.4875L68.0166 66.4861C68.0555 66.4666 68.0971 66.4569 68.1402 66.4569H72.486C72.6152 66.4569 72.7277 66.5458 72.7569 66.6708C72.786 66.7958 72.7249 66.9264 72.6096 66.9833L68.5721 68.9847C68.5332 69.0041 68.4916 69.0139 68.4485 69.0139ZM65.2874 68.4583H68.3832L71.2999 67.0125H68.2055L65.2874 68.4583Z" fill="#E3EFFC"/>
<path d="M76.5207 64.7361L72.486 66.7347H68.1402H63.7902H59.4443L63.4777 64.7361H67.8249H72.1735H76.5207Z" fill="#1671D9"/>
<path d="M72.4858 67.0125H59.4455C59.3164 67.0125 59.2039 66.9236 59.1747 66.7986C59.1455 66.6736 59.2067 66.543 59.3219 66.4861L63.3553 64.4861C63.3941 64.4666 63.4358 64.4569 63.4789 64.4569H76.5219C76.6511 64.4569 76.7636 64.5458 76.7928 64.6708C76.8219 64.7958 76.7608 64.9264 76.6455 64.9833L72.6108 66.9833C72.5705 67.0028 72.5275 67.0125 72.4858 67.0125ZM60.6303 66.4569H72.4205L75.3344 65.0125H63.5428L60.6303 66.4569Z" fill="#E3EFFC"/>
<path d="M80.5567 62.7347L76.5206 64.7361H72.1733L76.2095 62.7347H80.5567Z" fill="#1671D9"/>
<path d="M76.5208 65.0139H72.1736C72.0444 65.0139 71.9319 64.925 71.9027 64.8C71.8736 64.675 71.9347 64.5444 72.05 64.4875L76.0875 62.4861C76.1263 62.4666 76.168 62.4569 76.2111 62.4569H80.5583C80.6875 62.4569 80.8 62.5458 80.8291 62.6708C80.8583 62.7958 80.7972 62.9264 80.6819 62.9833L76.6444 64.9847C76.6055 65.0041 76.5638 65.0139 76.5208 65.0139ZM73.3583 64.4583H76.4555L79.3722 63.0125H76.275L73.3583 64.4583Z" fill="#E3EFFC"/>
<path d="M72.7956 68.7361L68.7609 70.7361H64.415L68.4484 68.7361H72.7956Z" fill="#1671D9"/>
<path d="M68.7611 71.0139H64.4153C64.2861 71.0139 64.1736 70.925 64.1444 70.8C64.1153 70.675 64.1764 70.5444 64.2917 70.4875L68.325 68.4875C68.3639 68.4681 68.4056 68.4583 68.4486 68.4583H72.7958C72.925 68.4583 73.0375 68.5472 73.0667 68.6722C73.0958 68.7972 73.0347 68.9278 72.9194 68.9847L68.8847 70.9847C68.8458 71.0042 68.8042 71.0139 68.7611 71.0139ZM65.6014 70.4583H68.6958L71.6097 69.0139H68.5139L65.6014 70.4583Z" fill="#E3EFFC"/>
<path d="M80.8678 64.7361L76.8345 66.7347H72.4858L76.5206 64.7361H80.8678Z" fill="#1671D9"/>
<path d="M76.8347 67.0125H72.4861C72.3569 67.0125 72.2444 66.9236 72.2152 66.7986C72.1861 66.6736 72.2472 66.543 72.3625 66.4861L76.3972 64.4861C76.4361 64.4666 76.4777 64.4569 76.5208 64.4569H80.868C80.9972 64.4569 81.1097 64.5458 81.1388 64.6708C81.168 64.7958 81.1069 64.9264 80.9916 64.9833L76.9583 66.9833C76.9194 67.0028 76.8777 67.0125 76.8347 67.0125ZM73.6722 66.4569H76.7708L79.6833 65.0125H76.5861L73.6722 66.4569Z" fill="#E3EFFC"/>
<path d="M84.9052 62.7347L80.8677 64.7361H76.5205L80.5566 62.7347H84.9052Z" fill="#1671D9"/>
<path d="M80.868 65.0139H76.5207C76.3916 65.0139 76.2791 64.925 76.2499 64.8C76.2207 64.675 76.2818 64.5444 76.3971 64.4875L80.4346 62.4861C80.4735 62.4666 80.5152 62.4569 80.5582 62.4569H84.9055C85.0346 62.4569 85.1471 62.5458 85.1763 62.6708C85.2055 62.7958 85.1443 62.9264 85.0291 62.9833L80.9916 64.9847C80.9527 65.0041 80.911 65.0139 80.868 65.0139ZM77.7055 64.4583H80.8027L83.7193 63.0125H80.6221L77.7055 64.4583Z" fill="#E3EFFC"/>
<path d="M37.0801 62.7347L33.0426 64.7361H28.6968L32.7343 62.7347H37.0801Z" fill="#1671D9"/>
<path d="M33.0428 65.0139H28.697C28.5678 65.0139 28.4553 64.925 28.4262 64.8C28.397 64.675 28.4581 64.5444 28.5734 64.4875L32.6109 62.4861C32.6498 62.4666 32.6915 62.4569 32.7345 62.4569H37.0803C37.2095 62.4569 37.322 62.5458 37.3512 62.6708C37.3803 62.7958 37.3192 62.9264 37.204 62.9833L33.1665 64.9847C33.129 65.0041 33.0859 65.0139 33.0428 65.0139ZM29.8831 64.4583H32.9776L35.8942 63.0125H32.7998L29.8831 64.4583Z" fill="#E3EFFC"/>
<path d="M32.7343 62.7347L28.6968 64.7361H24.3481L28.3856 62.7347H32.7343Z" fill="#1671D9"/>
<path d="M28.697 65.0139H24.3484C24.2192 65.0139 24.1067 64.925 24.0775 64.8C24.0484 64.675 24.1095 64.5444 24.2248 64.4875L28.2623 62.4861C28.3012 62.4666 28.3428 62.4569 28.3859 62.4569H32.7345C32.8637 62.4569 32.9762 62.5458 33.0053 62.6708C33.0345 62.7958 32.9734 62.9264 32.8581 62.9833L28.8206 64.9847C28.7831 65.0041 28.74 65.0139 28.697 65.0139ZM25.5345 64.4583H28.6331L31.5498 63.0125H28.4511L25.5345 64.4583Z" fill="#E3EFFC"/>
<path d="M50.1249 62.7347L46.0874 64.7361H41.7388L45.7749 62.7347H50.1249Z" fill="#1671D9"/>
<path d="M46.0876 65.0139H41.739C41.6098 65.0139 41.4973 64.925 41.4682 64.8C41.439 64.675 41.5001 64.5444 41.6154 64.4875L45.6529 62.4861C45.6918 62.4666 45.7334 62.4569 45.7765 62.4569H50.1251C50.2543 62.4569 50.3668 62.5458 50.3959 62.6708C50.4251 62.7958 50.364 62.9264 50.2487 62.9833L46.2112 64.9847C46.1737 65.0041 46.1307 65.0139 46.0876 65.0139ZM42.9251 64.4583H46.0237L48.9404 63.0125H45.8404L42.9251 64.4583Z" fill="#E3EFFC"/>
<path d="M54.4721 62.7347L50.4346 64.7361H46.0874L50.1249 62.7347H54.4721Z" fill="#1671D9"/>
<path d="M50.4349 65.0139H46.0876C45.9585 65.0139 45.846 64.925 45.8168 64.8C45.7876 64.675 45.8487 64.5444 45.964 64.4875L50.0015 62.4861C50.0404 62.4666 50.0821 62.4569 50.1251 62.4569H54.4724C54.6015 62.4569 54.714 62.5458 54.7432 62.6708C54.7724 62.7958 54.7112 62.9264 54.596 62.9833L50.5585 64.9847C50.521 65.0041 50.4779 65.0139 50.4349 65.0139ZM47.2737 64.4583H50.371L53.2876 63.0125H50.1904L47.2737 64.4583Z" fill="#E3EFFC"/>
<path d="M29.319 68.7361L25.2857 70.7361H20.9385L24.9732 68.7361H29.319Z" fill="#1671D9"/>
<path d="M25.2859 71.0139H20.9387C20.8095 71.0139 20.697 70.925 20.6679 70.8C20.6387 70.675 20.6998 70.5444 20.8151 70.4875L24.8498 68.4875C24.8887 68.4681 24.9304 68.4583 24.9734 68.4583H29.3193C29.4484 68.4583 29.5609 68.5472 29.5901 68.6722C29.6193 68.7972 29.5581 68.9278 29.4429 68.9847L25.4095 70.9847C25.3706 71.0042 25.329 71.0139 25.2859 71.0139ZM22.1248 70.4583H25.2206L28.1331 69.0139H25.0387L22.1248 70.4583Z" fill="#E3EFFC"/>
<path d="M101.143 26.2181L89.5192 60.0695H29.4595L32.0539 52.4889H46.2636L55.8748 26.2181H101.143Z" fill="#E3EFFC"/>
<path d="M89.5194 60.382H29.4597C29.3583 60.382 29.2638 60.3333 29.2055 60.2514C29.1472 60.1695 29.1319 60.0639 29.1638 59.9681L31.7583 52.3875C31.8013 52.2611 31.9208 52.1764 32.0541 52.1764H46.0444L55.5819 26.1111C55.6263 25.9875 55.7444 25.9056 55.8749 25.9056H101.142C101.243 25.9056 101.337 25.9542 101.396 26.0361C101.454 26.1181 101.469 26.2236 101.437 26.3195L89.8138 60.1695C89.7708 60.2972 89.6527 60.382 89.5194 60.382ZM29.8958 59.757H89.2958L100.706 26.532H56.0944L46.5569 52.5958C46.5124 52.7195 46.3944 52.8014 46.2638 52.8014H32.2777L29.8958 59.757Z" fill="#E3EFFC"/>
<path d="M104.107 24.7819L91.5374 61.5056H26.4985L29.5846 52.4889H32.0541L29.4596 60.0694H89.5194L101.143 26.218H55.8749L56.4013 24.7819H104.107Z" fill="#1671D9"/>
<path d="M91.5376 61.8181H26.4987C26.3973 61.8181 26.3029 61.7695 26.2446 61.6875C26.1862 61.6056 26.171 61.5 26.2029 61.4042L29.289 52.3875C29.3321 52.2611 29.4515 52.1764 29.5848 52.1764H32.0543C32.1557 52.1764 32.2501 52.225 32.3085 52.307C32.3668 52.3889 32.3821 52.4945 32.3501 52.5903L29.8973 59.757H89.2973L100.707 26.532H55.8751C55.7737 26.532 55.6779 26.482 55.6196 26.3986C55.5612 26.3153 55.5473 26.2083 55.5821 26.1125L56.1071 24.6764C56.1515 24.5528 56.2696 24.4708 56.4001 24.4708H104.106C104.207 24.4708 104.302 24.5195 104.36 24.6014C104.418 24.6833 104.433 24.7889 104.402 24.8847L91.8321 61.6083C91.789 61.7333 91.671 61.8181 91.5376 61.8181ZM26.9362 61.1931H91.314L103.67 25.0945H56.6196L56.3223 25.9056H101.142C101.243 25.9056 101.338 25.9542 101.396 26.0361C101.454 26.1181 101.47 26.2236 101.438 26.3195L89.814 60.1695C89.7709 60.2958 89.6515 60.3806 89.5182 60.3806H29.4598C29.3585 60.3806 29.264 60.332 29.2057 60.25C29.1473 60.1681 29.1321 60.0625 29.164 59.9667L31.6168 52.8H29.8085L26.9362 61.1931Z" fill="#E3EFFC"/>
<path d="M91.5375 61.5055L94.8556 65.7236L65.6167 79.6097V74.6347L91.5375 61.5055Z" fill="#80BBFF"/>
<path d="M65.6167 79.9222C65.5584 79.9222 65.5 79.9055 65.45 79.8736C65.3598 79.8167 65.3042 79.7167 65.3042 79.6097V74.6347C65.3042 74.5167 65.3709 74.4097 65.475 74.3555L91.3959 61.2264C91.5292 61.1597 91.6903 61.1944 91.7834 61.3125L95.1014 65.5305C95.1598 65.6055 95.182 65.7028 95.1597 65.7958C95.1375 65.8889 95.075 65.9666 94.9889 66.0069L65.75 79.893C65.7084 79.9111 65.6625 79.9222 65.6167 79.9222ZM65.9292 74.8264V79.1153L94.3681 65.6097L91.45 61.9L65.9292 74.8264Z" fill="#E3EFFC"/>
<path d="M46.7513 5.14027C46.7513 5.08194 46.7485 5.02499 46.743 4.96805C46.7416 4.95971 46.7416 4.95138 46.7402 4.94305C46.7346 4.89999 46.7291 4.85694 46.7207 4.81527C46.7194 4.80694 46.7152 4.79999 46.7138 4.79166C46.7041 4.74305 46.6902 4.69721 46.6749 4.64999C46.6694 4.63471 46.668 4.61805 46.6624 4.60277C46.661 4.5986 46.6596 4.59583 46.6582 4.59166C46.6499 4.56805 46.6374 4.54444 46.6277 4.52221C46.6166 4.49583 46.6055 4.46805 46.593 4.44166C46.5902 4.4361 46.5874 4.43194 46.5846 4.42638C46.5763 4.40971 46.5652 4.39443 46.5555 4.37777C46.5416 4.35416 46.5291 4.33055 46.5152 4.30832C46.5041 4.29166 46.493 4.27638 46.4819 4.25971L44.0263 0.912491C44.0541 0.949991 44.0777 0.990269 44.1013 1.03055C44.111 1.04721 44.1207 1.06249 44.1305 1.07916C44.1471 1.10971 44.1596 1.14305 44.1735 1.17499C44.1832 1.1986 44.1944 1.22082 44.2041 1.24444C44.211 1.26388 44.2152 1.28332 44.2221 1.30277C44.2374 1.3486 44.2513 1.39582 44.261 1.44444C44.2721 1.49444 44.2805 1.54444 44.2874 1.59582C44.2888 1.60416 44.2888 1.61249 44.2902 1.62083C44.2957 1.67638 44.2985 1.73471 44.2985 1.79305C44.2985 1.7986 44.2985 1.80416 44.2985 1.80971C44.2971 1.87083 44.293 1.93194 44.286 1.99444C44.2846 2.00694 44.2832 2.01805 44.2819 2.03055C44.2735 2.09305 44.2624 2.15555 44.2471 2.21944C44.2444 2.23055 44.2416 2.24166 44.2388 2.25277C44.2221 2.31944 44.2041 2.38749 44.1805 2.45555C44.1499 2.54444 44.1138 2.63194 44.0735 2.71805C44.068 2.73055 44.061 2.74444 44.0541 2.75694C44.0138 2.83888 43.9707 2.91944 43.9221 2.9986C43.9221 2.9986 43.9221 2.9986 43.9221 2.99999C43.8763 3.07499 43.8249 3.1486 43.7707 3.22083C43.7569 3.24027 43.7416 3.25971 43.7277 3.27777C43.6846 3.33332 43.6402 3.38749 43.5944 3.44027C43.5832 3.45277 43.5735 3.46527 43.5638 3.47638C43.5082 3.53749 43.4499 3.59721 43.3902 3.65555C43.3749 3.67082 43.3582 3.68471 43.343 3.6986C43.2957 3.74166 43.2471 3.78471 43.1985 3.82499C43.1791 3.84166 43.1596 3.85694 43.1388 3.8736C43.0791 3.92083 43.018 3.96666 42.9555 4.0111C42.9471 4.01666 42.9402 4.02221 42.9319 4.02777C42.8582 4.07777 42.7832 4.12499 42.7069 4.16944C42.6874 4.18055 42.6694 4.19027 42.6499 4.20138C42.5694 4.24583 42.4874 4.28888 42.4041 4.32638C42.3985 4.32916 42.3944 4.33194 42.3888 4.33332C42.3721 4.34027 42.3555 4.34721 42.3402 4.35416C42.2957 4.3736 42.2513 4.39166 42.2069 4.40971C42.1832 4.41805 42.161 4.42638 42.1374 4.43333C42.0999 4.44721 42.061 4.45971 42.0221 4.47221C41.9846 4.48333 41.9471 4.49305 41.9082 4.50416C41.8805 4.5111 41.8513 4.51944 41.8235 4.52638C41.7832 4.5361 41.7444 4.54305 41.7041 4.54999C41.6777 4.55555 41.6513 4.5611 41.6249 4.56527C41.5805 4.57221 41.536 4.57638 41.493 4.58194C41.4707 4.58471 41.4485 4.58749 41.4263 4.59027C41.3596 4.59583 41.293 4.5986 41.2277 4.5986C41.1444 4.5986 41.0652 4.59305 40.9874 4.58471C40.5124 4.02777 39.9902 3.49583 39.6249 2.99721C39.6194 3.06666 39.6207 3.13332 39.6235 3.19999C39.6235 3.21388 39.6249 3.22777 39.6249 3.24166C39.6291 3.30555 39.6374 3.36805 39.6485 3.42916C39.6485 3.43194 39.6485 3.4361 39.6499 3.43888C39.6513 3.44582 39.6541 3.45138 39.6555 3.45694C39.6694 3.52221 39.686 3.5861 39.7082 3.64721C39.7096 3.64999 39.7096 3.65277 39.711 3.65555C39.711 3.65694 39.7124 3.65694 39.7124 3.65832C39.7305 3.70694 39.7513 3.75555 39.7749 3.80138C39.7777 3.80555 39.7791 3.8111 39.7805 3.81527C39.7846 3.82499 39.7916 3.83333 39.7971 3.84305C39.8124 3.87083 39.8291 3.8986 39.8457 3.92499C39.8499 3.93194 39.8541 3.94027 39.8596 3.9486C39.8707 3.96388 39.8819 3.98055 39.893 3.99582L40.993 5.49582L42.3485 7.34305C42.6207 7.71388 43.086 7.94305 43.6846 7.94305C43.7513 7.94305 43.8166 7.94027 43.8832 7.93472C43.9055 7.93333 43.9277 7.92916 43.9499 7.92638C43.9944 7.92222 44.0374 7.91666 44.0819 7.90971C44.1082 7.90555 44.1346 7.89999 44.161 7.89444C44.2013 7.88749 44.2416 7.87916 44.2805 7.87082C44.3082 7.86388 44.3374 7.85555 44.3652 7.8486C44.4027 7.83888 44.4416 7.82916 44.4791 7.81666C44.4846 7.81527 44.4902 7.81388 44.4957 7.81249C44.5291 7.80277 44.561 7.79027 44.593 7.77777C44.6166 7.76944 44.6388 7.76249 44.6624 7.75416C44.7069 7.73749 44.7513 7.71805 44.7957 7.6986C44.8124 7.69166 44.8291 7.6861 44.8444 7.67777C44.8457 7.67777 44.8471 7.67638 44.8485 7.67638C44.8527 7.67499 44.8555 7.67221 44.8596 7.67083C44.943 7.63333 45.0249 7.59027 45.1055 7.54583C45.1166 7.54027 45.1277 7.53471 45.1374 7.52916C45.1457 7.52499 45.1541 7.51805 45.1624 7.51388C45.2388 7.46944 45.3138 7.42221 45.3874 7.37221C45.3888 7.37083 45.3902 7.37083 45.3916 7.36944C45.3985 7.36527 45.4041 7.35971 45.411 7.35555C45.4735 7.31249 45.5346 7.26666 45.5944 7.21805C45.6027 7.2111 45.6124 7.20416 45.6221 7.19721C45.6332 7.18888 45.643 7.17916 45.6541 7.16944C45.7041 7.12777 45.7513 7.0861 45.7985 7.04166C45.8096 7.03194 45.8221 7.02221 45.8332 7.0111C45.8374 7.00694 45.8416 7.00277 45.8457 6.9986C45.9055 6.94027 45.9638 6.88194 46.0194 6.81944C46.0221 6.81666 46.0249 6.81388 46.0277 6.8111C46.036 6.80138 46.043 6.79166 46.0513 6.78333C46.0971 6.73055 46.1416 6.67638 46.1846 6.62083C46.193 6.6111 46.2013 6.60138 46.2096 6.59166C46.2166 6.58332 46.2221 6.5736 46.2277 6.56388C46.2805 6.49166 46.3319 6.41805 46.3791 6.34305C46.4277 6.26388 46.4707 6.18332 46.511 6.10138C46.518 6.08888 46.5235 6.07638 46.5305 6.06249C46.5346 6.05277 46.5402 6.04305 46.5444 6.03333C46.5791 5.95694 46.611 5.87916 46.6374 5.79999C46.661 5.73194 46.6805 5.66388 46.6957 5.59721C46.6985 5.5861 46.7013 5.57499 46.7041 5.56388C46.718 5.49999 46.7305 5.43749 46.7388 5.37499C46.7402 5.36249 46.7416 5.35138 46.743 5.33888C46.7499 5.27638 46.7555 5.21388 46.7555 5.15416C46.7513 5.15138 46.7513 5.14582 46.7513 5.14027Z" fill="#3D89DF"/>
<path d="M43.6765 8.25971C42.9959 8.25971 42.4321 8.00138 42.0876 7.53194L39.632 4.18471C39.632 4.18332 39.6307 4.18333 39.6307 4.18194C39.6168 4.16388 39.6043 4.14444 39.5918 4.12638C39.5834 4.11527 39.5779 4.10277 39.5709 4.09166C39.5529 4.06388 39.5334 4.03055 39.514 3.99582C39.5084 3.98749 39.5015 3.97499 39.4946 3.96249C39.4918 3.95555 39.4862 3.94582 39.4834 3.93749C39.4557 3.88194 39.4334 3.82916 39.414 3.77777C39.4126 3.77221 39.4098 3.76805 39.4084 3.76249C39.4071 3.75694 39.4043 3.75138 39.4029 3.74583C39.3807 3.68055 39.3612 3.6111 39.3446 3.5361C39.3418 3.52499 39.339 3.51388 39.3362 3.50277C39.3348 3.49721 39.3334 3.48888 39.3334 3.48194C39.3209 3.41388 39.3126 3.34305 39.307 3.26805L39.3043 3.22638C39.3001 3.12916 39.3015 3.05416 39.3057 2.97916C39.3154 2.8486 39.4057 2.73749 39.5307 2.70138C39.6571 2.66527 39.7918 2.7111 39.8696 2.81666C40.0973 3.12777 40.3918 3.45694 40.7043 3.80416C40.8459 3.9611 40.9904 4.1236 41.1334 4.28749C41.2223 4.29166 41.3071 4.28888 41.3932 4.28194L41.4529 4.27499C41.5001 4.26944 41.5348 4.26666 41.5696 4.2611C41.5807 4.25971 41.5932 4.25694 41.6057 4.25416L41.6584 4.24305C41.6876 4.23749 41.7168 4.23194 41.7459 4.22499C41.7612 4.22083 41.7765 4.21666 41.7918 4.21249L41.8418 4.1986C41.8695 4.19166 41.8959 4.18471 41.9237 4.17499C41.957 4.16388 41.9904 4.15277 42.0237 4.14027L42.089 4.11805C42.1293 4.10277 42.1695 4.08471 42.2098 4.06805L42.2682 4.04305C42.3376 4.0111 42.4112 3.9736 42.4918 3.92916L42.5445 3.89999C42.6223 3.85416 42.689 3.81249 42.7501 3.77082C42.7529 3.76944 42.7696 3.75694 42.7723 3.75555C42.8293 3.71527 42.8848 3.6736 42.9404 3.63055C42.9584 3.61666 42.9765 3.60138 42.9946 3.5861C43.039 3.5486 43.0834 3.50971 43.1265 3.47082L43.1695 3.43194C43.2237 3.37916 43.2779 3.32499 43.3279 3.26944L43.3557 3.2361C43.3973 3.18888 43.4376 3.13888 43.4765 3.08888C43.4904 3.07221 43.5029 3.05416 43.5154 3.03749C43.5709 2.9611 43.614 2.8986 43.6515 2.83888C43.6529 2.83749 43.6529 2.8361 43.6543 2.83471C43.6932 2.77221 43.7307 2.70277 43.7695 2.62221L43.7862 2.58749C43.8251 2.50555 43.8557 2.43055 43.8807 2.35694C43.8987 2.30416 43.9154 2.24583 43.9321 2.18055C43.9321 2.17916 43.9362 2.16527 43.9362 2.16527L43.939 2.15138C43.9515 2.09721 43.9612 2.04444 43.9682 1.99166L43.9709 1.96944C43.9779 1.90971 43.982 1.85694 43.982 1.80694V1.79305C43.982 1.74583 43.9793 1.6986 43.9751 1.65277C43.9751 1.64999 43.9737 1.63749 43.9737 1.63471C43.9696 1.59027 43.9612 1.55138 43.9529 1.5111C43.9446 1.4736 43.9334 1.4361 43.9223 1.39999L43.9126 1.36666C43.9057 1.34583 43.9015 1.33749 43.8987 1.32916L43.8793 1.28471C43.8709 1.26527 43.8626 1.24583 43.8529 1.22638L43.8307 1.18888C43.8126 1.15833 43.7945 1.12777 43.7737 1.0986C43.6723 0.959715 43.7015 0.76388 43.8404 0.662491C43.9793 0.561102 44.1751 0.59027 44.2765 0.729159L46.7321 4.07638C46.7459 4.09582 46.7598 4.11527 46.7737 4.1361C46.789 4.15833 46.8015 4.18055 46.814 4.20416L46.8321 4.23471C46.8404 4.24721 46.8473 4.2611 46.8557 4.27499C46.8612 4.28333 46.8654 4.29166 46.8709 4.30138C46.8834 4.32638 46.8946 4.35277 46.9057 4.37916L46.9223 4.41805C46.9307 4.43749 46.9404 4.45694 46.9473 4.47638C46.9501 4.48471 46.9543 4.49305 46.9571 4.4986C46.964 4.51805 46.9696 4.53749 46.9737 4.55694C46.9904 4.60971 47.0057 4.66249 47.0182 4.71805C47.0223 4.73194 47.0251 4.74444 47.0279 4.75694C47.0376 4.80694 47.0446 4.85832 47.0515 4.90971C47.0515 4.91388 47.0529 4.93055 47.0543 4.93471C47.0612 5.00694 47.064 5.0736 47.064 5.14027C47.064 5.14582 47.064 5.15833 47.064 5.16249C47.0626 5.22916 47.0584 5.29999 47.0487 5.37916L47.0432 5.42083C47.0334 5.49305 47.0209 5.56666 47.0043 5.63749L46.9973 5.66527C46.9737 5.75971 46.9515 5.8361 46.9279 5.90694C46.8987 5.99444 46.8626 6.08194 46.8237 6.16805L46.7932 6.23055C46.739 6.34305 46.6904 6.43055 46.6418 6.5111C46.639 6.51527 46.6376 6.51805 46.6348 6.52221C46.5862 6.59999 46.5376 6.67221 46.4751 6.75555C46.4696 6.76388 46.4626 6.77499 46.4543 6.78471C46.4459 6.79444 46.4376 6.80555 46.4293 6.81527C46.3807 6.87777 46.332 6.9361 46.282 6.99444C46.2737 7.00555 46.2654 7.01527 46.2571 7.02499C46.2529 7.03055 46.2445 7.03888 46.239 7.04305C46.189 7.0986 46.1251 7.16527 46.0571 7.22916C46.0571 7.23055 46.0501 7.23749 46.0432 7.24305C46.0334 7.25277 46.0223 7.2611 46.0126 7.27082C45.9543 7.3236 45.9029 7.36943 45.8487 7.41388C45.8348 7.42638 45.8251 7.43471 45.8154 7.44305C45.8057 7.45138 45.7959 7.45833 45.7862 7.46527C45.7195 7.51805 45.6543 7.56805 45.5862 7.61527C45.5821 7.61944 45.5737 7.62499 45.5668 7.63055C45.564 7.63333 45.5598 7.63471 45.5557 7.63749C45.4834 7.68749 45.4043 7.7361 45.3154 7.78749C45.3084 7.79305 45.2973 7.7986 45.2876 7.80416C45.2765 7.8111 45.2654 7.81666 45.2529 7.82222C45.1598 7.8736 45.0737 7.91805 44.9904 7.95555C44.9834 7.95832 44.9765 7.96249 44.9723 7.96388C44.9543 7.97221 44.9418 7.97638 44.9279 7.98194L44.914 7.98749C44.8654 8.00833 44.8168 8.02916 44.7682 8.04721C44.7501 8.05416 44.732 8.05971 44.7154 8.06666L44.6654 8.08471C44.639 8.09444 44.6112 8.10416 44.5848 8.11249C44.5793 8.11388 44.5668 8.11805 44.5612 8.11944C44.5307 8.12916 44.4932 8.13888 44.4571 8.1486L44.4154 8.15971C44.3932 8.16666 44.3696 8.17221 44.3473 8.17777C44.3098 8.1861 44.2709 8.19443 44.2334 8.20138L44.189 8.20971C44.1682 8.21388 44.1459 8.21804 44.1251 8.22221C44.0807 8.22916 44.0348 8.23471 43.9904 8.23888L43.9571 8.24305C43.939 8.24583 43.9209 8.24721 43.9029 8.2486C43.8265 8.25693 43.7515 8.25971 43.6765 8.25971ZM42.5932 7.16249C42.8168 7.46666 43.2015 7.63471 43.6779 7.63471C43.7348 7.63471 43.7932 7.63194 43.8515 7.62777L43.9112 7.62082C43.9584 7.61527 43.9918 7.61249 44.0265 7.60693C44.039 7.60555 44.0515 7.60277 44.064 7.59999L44.1182 7.58888C44.1473 7.58332 44.1751 7.57777 44.2043 7.57082C44.2196 7.56805 44.2334 7.56388 44.2487 7.55971L44.2973 7.54583C44.3251 7.53888 44.3543 7.53055 44.3821 7.52221C44.3862 7.52083 44.4001 7.51666 44.4043 7.51527C44.4154 7.5111 44.4348 7.50416 44.4543 7.49721L44.5487 7.46388C44.589 7.4486 44.6293 7.43193 44.6696 7.41388L44.714 7.39583C44.7126 7.39583 44.7209 7.39166 44.7293 7.38888C44.7973 7.35694 44.8709 7.32082 44.9529 7.27499C44.9626 7.26943 44.9737 7.26388 44.9848 7.25832C44.9876 7.25555 44.9959 7.24999 45.0057 7.24582C45.0834 7.20138 45.1501 7.15832 45.2112 7.11666C45.2126 7.11527 45.214 7.11388 45.2168 7.11388C45.2223 7.10971 45.2307 7.10416 45.2348 7.10138C45.2904 7.06249 45.3473 7.02082 45.4015 6.97638C45.4098 6.96944 45.4182 6.96388 45.4265 6.95694C45.4376 6.94582 45.4459 6.93888 45.4557 6.93194C45.5015 6.89444 45.5445 6.85555 45.5876 6.81527C45.5959 6.80832 45.6043 6.79999 45.614 6.79305C45.6182 6.78888 45.6265 6.78055 45.6307 6.77638C45.6848 6.7236 45.7376 6.66944 45.789 6.61388C45.7904 6.61249 45.7932 6.60833 45.7959 6.60555C45.8043 6.59582 45.8098 6.58749 45.8168 6.58055C45.8584 6.53332 45.8987 6.48332 45.9376 6.43332C45.9446 6.42499 45.9515 6.41527 45.9584 6.40693C45.9626 6.39999 45.9696 6.39027 45.9765 6.38055C46.0321 6.30555 46.0751 6.24166 46.1126 6.18194C46.1126 6.18055 46.114 6.18055 46.114 6.17916C46.1529 6.11666 46.1904 6.04721 46.2293 5.96666L46.2571 5.90971C46.289 5.83888 46.3168 5.76944 46.3404 5.70138C46.3584 5.6486 46.3751 5.59027 46.3918 5.52499C46.3918 5.5236 46.3959 5.50971 46.3959 5.50971C46.4112 5.44166 46.4209 5.38888 46.4279 5.3361L46.4307 5.31388C46.4376 5.25416 46.4418 5.20277 46.4418 5.15138V5.13749C46.4418 5.09027 46.439 5.04305 46.4348 4.99721C46.4348 4.99444 46.4334 4.98194 46.4334 4.97916C46.4293 4.94582 46.4251 4.91527 46.4196 4.8861C46.4168 4.87638 46.414 4.86666 46.4112 4.85555C46.4029 4.81805 46.3918 4.78055 46.3807 4.74444C46.3765 4.73194 46.3723 4.71805 46.3696 4.70555C46.3682 4.70277 46.3682 4.70138 46.3668 4.6986C46.364 4.69027 46.3598 4.68194 46.3557 4.67221L46.3293 4.6111C46.3265 4.60277 46.3237 4.59582 46.3196 4.58888C46.3168 4.58332 46.3126 4.57777 46.3098 4.57221L46.2723 4.50832C46.2668 4.49999 46.2626 4.49027 46.2571 4.48194C46.2487 4.46943 46.2404 4.45694 46.2307 4.44444L44.5723 2.18333C44.5654 2.21805 44.5584 2.25277 44.5515 2.28749L44.5446 2.31527C44.5209 2.40971 44.5001 2.48471 44.4751 2.55555C44.4432 2.64999 44.4029 2.74582 44.3557 2.8486L44.3404 2.87916C44.2862 2.99027 44.2376 3.07916 44.189 3.15971C44.1876 3.1611 44.1862 3.16388 44.1848 3.16527C44.1376 3.24027 44.0862 3.31666 44.0223 3.40416C44.0071 3.42499 43.9904 3.44582 43.9751 3.46666C43.9279 3.52638 43.8793 3.5861 43.8293 3.64444L43.8196 3.65555C43.8112 3.66527 43.8029 3.67499 43.7945 3.68471C43.7362 3.74999 43.6723 3.81527 43.6043 3.87916L43.5529 3.92638C43.5015 3.9736 43.4487 4.01944 43.3959 4.06388C43.3751 4.08194 43.3529 4.0986 43.3321 4.11666C43.2668 4.16805 43.2015 4.21805 43.1334 4.26527L43.1071 4.28332C43.0334 4.33332 42.9543 4.38333 42.8626 4.4361L42.8001 4.47083C42.7043 4.5236 42.6168 4.56944 42.532 4.60694L42.5154 4.61527C42.5029 4.62082 42.489 4.62638 42.4765 4.63194L42.4612 4.63749C42.4126 4.65833 42.364 4.67916 42.3154 4.69721C42.2973 4.70416 42.2793 4.70971 42.2612 4.71666L42.239 4.7236C42.1946 4.73888 42.1543 4.75416 42.1126 4.76666C42.0779 4.77777 42.0418 4.78749 42.007 4.79721L41.964 4.80832C41.9404 4.81527 41.9182 4.82083 41.8946 4.82638C41.8571 4.83471 41.8182 4.84305 41.7807 4.84999L41.7362 4.85832C41.7154 4.86249 41.6946 4.86666 41.6737 4.87082C41.6279 4.87777 41.5821 4.88333 41.5362 4.88749L41.5043 4.89166C41.4862 4.89444 41.4682 4.89582 41.4501 4.89721C41.2862 4.9111 41.1293 4.9111 40.9515 4.89027C40.9445 4.88888 40.939 4.88888 40.9334 4.88749L42.5932 7.16249Z" fill="#E3EFFC"/>
<path d="M42.6892 0.313889C43.917 0.313889 44.5836 1.27361 44.1767 2.45695C44.1128 2.64445 44.0253 2.82639 43.9198 3C43.3559 3.92083 42.2545 4.60139 41.2211 4.60139C40.1878 4.60139 39.5531 3.92083 39.6184 3C39.6309 2.82639 39.6684 2.64445 39.7323 2.45695C40.1392 1.27361 41.4628 0.313889 42.6892 0.313889Z" fill="#80BBFF"/>
<path d="M41.2225 4.9125C40.6253 4.9125 40.1045 4.70694 39.7559 4.33194C39.4295 3.98195 39.2711 3.5 39.3086 2.97639C39.3239 2.77361 39.367 2.56389 39.4392 2.35417C39.8906 1.03333 41.3184 0 42.6906 0C43.3795 0 43.9489 0.263889 44.2906 0.744445C44.6406 1.23472 44.7059 1.87917 44.4739 2.55695C44.4045 2.7625 44.3072 2.96528 44.1878 3.16111C43.5559 4.19306 42.3364 4.9125 41.2225 4.9125ZM42.6892 0.626388C41.5864 0.626388 40.3934 1.49306 40.0295 2.55833C39.9753 2.71667 39.942 2.87361 39.9309 3.02222C39.9059 3.37639 40.0031 3.68194 40.2128 3.90694C40.4447 4.15694 40.7934 4.2875 41.2211 4.2875C42.1295 4.2875 43.1295 3.69028 43.6531 2.83611C43.7489 2.67917 43.8253 2.51805 43.8809 2.35555C44.0461 1.87361 44.01 1.43055 43.7809 1.10833C43.56 0.797222 43.1711 0.626388 42.6892 0.626388Z" fill="#E3EFFC"/>
<path d="M21.9598 5.93056H24.2862C20.9265 15.2889 17.2723 24.6042 11.6709 34.0528L21.9598 5.93056Z" fill="#1671D9"/>
<path d="M11.671 34.3653C11.6266 34.3653 11.5808 34.3556 11.5377 34.3347C11.3919 34.2653 11.3224 34.0972 11.378 33.9444L21.6669 5.82222C21.7113 5.69861 21.8294 5.61667 21.9599 5.61667H24.2863C24.3877 5.61667 24.4835 5.66667 24.5419 5.75C24.6002 5.83333 24.6141 5.94028 24.5808 6.03472C20.8363 16.4653 17.253 25.2486 11.9405 34.2111C11.8808 34.3097 11.778 34.3653 11.671 34.3653ZM22.178 6.24306L13.2363 30.6833C17.4835 22.9681 20.6099 15.2139 23.8405 6.24306H22.178Z" fill="#E3EFFC"/>
<path d="M53.5858 3L56.0413 6.34722L55.0386 9.27778L52.583 5.93056L53.5858 3Z" fill="#3D89DF"/>
<path d="M55.0387 9.59028C54.9401 9.59028 54.8457 9.54306 54.7874 9.46251L52.3318 6.11528C52.2707 6.03334 52.2554 5.9264 52.2887 5.82917L53.2929 2.89862C53.3304 2.78889 53.4262 2.70834 53.5415 2.69028C53.6568 2.67362 53.7721 2.72084 53.8401 2.81389L56.2957 6.16112C56.3568 6.24306 56.3721 6.35001 56.3387 6.44723L55.3346 9.37778C55.2971 9.4875 55.2012 9.56806 55.086 9.58612C55.0693 9.58889 55.054 9.59028 55.0387 9.59028ZM52.9318 5.87639L54.936 8.60973L55.6929 6.40001L53.6887 3.66667L52.9318 5.87639Z" fill="#E3EFFC"/>
<path d="M53.5862 3L52.582 5.93056L51.3834 9.42917H29.1265L30.3251 5.93056L31.3292 3H39.6209C39.5542 3.92083 40.1904 4.60139 41.2237 4.60139C42.257 4.60139 43.3584 3.92083 43.9223 3H53.5862Z" fill="#80BBFF"/>
<path d="M51.385 9.74167H29.1267C29.0253 9.74167 28.9308 9.69305 28.8725 9.61111C28.8142 9.52917 28.7989 9.42361 28.8308 9.32778L31.0322 2.89861C31.0753 2.77222 31.1947 2.6875 31.328 2.6875H39.6197C39.7058 2.6875 39.7892 2.72361 39.8489 2.7875C39.9086 2.85139 39.9378 2.93611 39.9322 3.02222C39.9072 3.37639 40.0044 3.68194 40.2142 3.90694C40.4461 4.15694 40.7947 4.2875 41.2225 4.2875C42.1308 4.2875 43.1308 3.69028 43.6544 2.83611C43.7114 2.74306 43.8128 2.6875 43.9211 2.6875H53.5878C53.6892 2.6875 53.7836 2.73611 53.8419 2.81806C53.9003 2.9 53.9155 3.00556 53.8836 3.10139L51.6822 9.53056C51.6378 9.65695 51.5183 9.74167 51.385 9.74167ZM29.5642 9.11667H51.1628L53.1503 3.3125H44.0905C43.4378 4.2625 42.2822 4.91389 41.2225 4.91389C40.6253 4.91389 40.1044 4.70833 39.7558 4.33333C39.5003 4.05972 39.3475 3.70417 39.3114 3.3125H31.5517L29.5642 9.11667Z" fill="#E3EFFC"/>
<path d="M52.5833 5.93056H58.0917C52.9694 21.3111 48.3486 37.7306 40.3305 47.1153H6.89166H2.60693C6.14027 42.7222 9.10971 38.3736 11.6708 34.0528C17.2722 24.6042 20.9264 15.2889 24.2861 5.93056H30.325L29.1264 9.42917H51.3847L52.5833 5.93056ZM47.1986 20.5028L47.3819 19.3542H23.9847L23.8014 20.5028H47.1986ZM45.7389 24.1667L45.9222 23.0181H22.525L22.3417 24.1667H45.7389ZM44.2792 27.8278L44.4625 26.6792H21.0639L20.8805 27.8278H44.2792ZM48.6583 16.8403L48.8417 15.6917H25.4458L25.2625 16.8403H48.6583Z" fill="#E3EFFC"/>
<path d="M40.3291 47.4264H2.60689C2.48606 47.4264 2.37634 47.3569 2.32495 47.2486C2.27356 47.1403 2.28745 47.0111 2.36384 46.9181C5.73189 42.7319 8.68884 38.4708 11.4027 33.8931C16.6902 24.975 20.2597 16.2222 23.9916 5.825C24.0361 5.70139 24.1541 5.61806 24.2861 5.61806H30.3249C30.4263 5.61806 30.5208 5.66667 30.5791 5.74861C30.6374 5.83056 30.6527 5.93611 30.6208 6.03195L29.5638 9.11667H51.1624L52.2888 5.82917C52.3319 5.70278 52.4513 5.61806 52.5847 5.61806H58.093C58.193 5.61806 58.2874 5.66667 58.3472 5.74722C58.4055 5.82917 58.4222 5.93334 58.3902 6.02917C57.7333 8.00417 57.0722 10.0292 56.4333 11.9889C52.0902 25.3139 47.5986 39.0917 40.5694 47.3181C40.5083 47.3861 40.4208 47.4264 40.3291 47.4264ZM3.25689 46.8014H40.1847C47.0805 38.6569 51.5305 25.0014 55.8361 11.7944C56.4305 9.96944 57.0444 8.0875 57.6569 6.24167H52.8055L51.6791 9.52917C51.6361 9.65556 51.5166 9.74028 51.3833 9.74028H29.1263C29.0249 9.74028 28.9305 9.69167 28.8722 9.60972C28.8138 9.52778 28.7986 9.42222 28.8305 9.32639L29.8874 6.24167H24.5055C20.7874 16.5833 17.2166 25.3083 11.9402 34.2111C9.31939 38.6306 6.47495 42.7556 3.25689 46.8014ZM44.2791 28.1403H20.8805C20.7888 28.1403 20.7027 28.1 20.643 28.0306C20.5833 27.9611 20.5583 27.8694 20.5722 27.7792L20.7555 26.6306C20.7791 26.4792 20.9111 26.3667 21.0638 26.3667H44.4611C44.5527 26.3667 44.6388 26.4069 44.6986 26.4764C44.7583 26.5458 44.7833 26.6375 44.7694 26.7278L44.5861 27.8764C44.5624 28.0292 44.4319 28.1403 44.2791 28.1403ZM21.2472 27.5153H44.0124L44.0958 26.9917H21.3305L21.2472 27.5153ZM45.7388 24.4792H22.3416C22.2499 24.4792 22.1638 24.4389 22.1041 24.3694C22.0444 24.3 22.0194 24.2083 22.0333 24.1181L22.2166 22.9694C22.2402 22.8181 22.3722 22.7056 22.5249 22.7056H45.9222C46.0138 22.7056 46.0999 22.7458 46.1597 22.8153C46.2194 22.8847 46.2444 22.9764 46.2305 23.0667L46.0472 24.2153C46.0236 24.3667 45.893 24.4792 45.7388 24.4792ZM22.7069 23.8542H45.4722L45.5555 23.3306H22.7916L22.7069 23.8542ZM47.1986 20.8153H23.8013C23.7097 20.8153 23.6236 20.775 23.5638 20.7056C23.5041 20.6361 23.4791 20.5444 23.493 20.4542L23.6763 19.3056C23.6999 19.1542 23.8319 19.0417 23.9847 19.0417H47.3819C47.4736 19.0417 47.5597 19.0819 47.6194 19.1514C47.6791 19.2208 47.7041 19.3125 47.6902 19.4028L47.5069 20.5514C47.4833 20.7042 47.3527 20.8153 47.1986 20.8153ZM24.168 20.1903H46.9333L47.0166 19.6667H24.2513L24.168 20.1903ZM48.6583 17.1528H25.2624C25.1708 17.1528 25.0847 17.1125 25.0249 17.0431C24.9652 16.9736 24.9402 16.8819 24.9541 16.7917L25.1374 15.6431C25.1611 15.4917 25.293 15.3792 25.4458 15.3792H48.8416C48.9333 15.3792 49.0194 15.4194 49.0791 15.4889C49.1388 15.5583 49.1638 15.65 49.1499 15.7403L48.9666 16.8889C48.943 17.0417 48.8124 17.1528 48.6583 17.1528ZM25.6277 16.5278H48.3916L48.4749 16.0042H25.7111L25.6277 16.5278Z" fill="#E3EFFC"/>
<path d="M46.6 53.3806H31.8042H29.8459H4.59863L7.05419 56.7278H32.3H34.2597H49.0556L46.6 53.3806Z" fill="#3D89DF"/>
<path d="M49.0556 57.0403H7.05418C6.95418 57.0403 6.86112 56.9931 6.80279 56.9125L4.34723 53.5653C4.27779 53.4708 4.26668 53.3445 4.32084 53.2389C4.37501 53.1333 4.48196 53.0681 4.60001 53.0681H46.6014C46.7014 53.0681 46.7945 53.1153 46.8528 53.1958L49.3083 56.5431C49.3778 56.6375 49.3889 56.7639 49.3347 56.8695C49.2806 56.9736 49.1736 57.0403 49.0556 57.0403ZM7.21251 56.4153H48.4389L46.4417 53.6931H5.21529L7.21251 56.4153Z" fill="#E3EFFC"/>
<path d="M63.9626 5.93056L54.6445 31.3958L54.2279 32.5347L46.6001 53.3806L49.0557 56.7278L56.6834 35.8819L57.1001 34.7431L66.4181 9.27778L63.9626 5.93056Z" fill="#80BBFF"/>
<path d="M49.0554 57.0403C48.9568 57.0403 48.8624 56.9931 48.804 56.9125L46.3485 53.5653C46.286 53.4806 46.2707 53.3708 46.3068 53.2736L63.6693 5.82222C63.7096 5.71389 63.8054 5.63611 63.9193 5.62084C64.0332 5.60417 64.1471 5.65278 64.2151 5.74583L66.6707 9.09306C66.7332 9.17778 66.7485 9.2875 66.7124 9.38473L49.3485 56.8347C49.3096 56.9431 49.2124 57.0208 49.0985 57.0361C49.0846 57.0389 49.0693 57.0403 49.0554 57.0403ZM46.9513 53.3306L48.9624 56.0722L66.0665 9.32639L64.0554 6.58473L46.9513 53.3306Z" fill="#E3EFFC"/>
<path d="M58.0903 5.93056H63.9806L54.6625 31.3958L54.2459 32.5347L46.6181 53.3806H31.8042H29.8445H4.59863L6.89169 47.1139H40.3292C48.3472 37.7292 52.9695 21.3111 58.0903 5.93056Z" fill="#1671D9"/>
<path d="M46.6193 53.6931H4.59847C4.49708 53.6931 4.40125 53.6431 4.34292 53.5597C4.28458 53.4764 4.27069 53.3694 4.30542 53.2736L6.59847 47.0069C6.64292 46.8833 6.76097 46.8014 6.89153 46.8014H40.1846C47.079 38.6569 51.5304 25.0014 55.836 11.7944C56.4749 9.83472 57.136 7.80833 57.7943 5.83056C57.8374 5.70278 57.9568 5.61667 58.0901 5.61667H63.9804C64.0818 5.61667 64.1776 5.66667 64.236 5.75C64.2943 5.83333 64.3082 5.94028 64.2735 6.03611L46.9124 53.4875C46.8679 53.6111 46.7499 53.6931 46.6193 53.6931ZM5.04569 53.0681H46.4013L63.5346 6.24306H58.3165C57.6818 8.15 57.0471 10.1 56.4304 11.9889C52.0874 25.3139 47.5957 39.0917 40.5665 47.3181C40.5068 47.3875 40.4207 47.4278 40.329 47.4278H7.10958L5.04569 53.0681Z" fill="#E3EFFC"/>
<path d="M40.3292 47.1139H6.89166H2.60693L5.0611 50.4611H9.34582H42.7847L40.3292 47.1139Z" fill="#80BBFF"/>
<path d="M42.7846 50.7736H5.06101C4.96101 50.7736 4.86796 50.7264 4.80962 50.6458L2.35407 47.2986C2.28462 47.2042 2.27351 47.0778 2.32768 46.9722C2.38046 46.8667 2.48879 46.8014 2.60685 46.8014H40.3305C40.4305 46.8014 40.5235 46.8486 40.5819 46.9292L43.0374 50.2764C43.1068 50.3708 43.118 50.4972 43.0638 50.6028C43.0096 50.7083 42.9027 50.7736 42.7846 50.7736ZM5.21935 50.1486H42.1666L40.1693 47.4264H3.22351L5.21935 50.1486Z" fill="#E3EFFC"/>
<path d="M47.5446 43.4736C47.6029 43.3694 47.6598 43.2639 47.7182 43.1583C47.8543 42.9125 47.9876 42.6653 48.1223 42.4153C48.1848 42.2972 48.2473 42.1792 48.3098 42.0611C48.4487 41.7986 48.5848 41.5333 48.721 41.2653C48.7696 41.1694 48.8182 41.0764 48.8668 40.9806C49.0487 40.6208 49.2279 40.2569 49.4057 39.8903C49.4418 39.8153 49.4765 39.7403 49.5126 39.6653C49.6557 39.3681 49.7973 39.0681 49.9376 38.7653C49.996 38.6417 50.0529 38.5167 50.1098 38.3917C50.1682 38.2639 50.2279 38.1375 50.2862 38.0097C50.3251 37.925 50.3626 37.8375 50.4001 37.7528C50.5598 37.3972 50.7196 37.0389 50.8765 36.6778C50.939 36.5361 51.0015 36.3944 51.0626 36.2528C51.2765 35.7542 51.4904 35.2528 51.7001 34.7444C51.7279 34.6778 51.7557 34.6083 51.7835 34.5417C51.9668 34.0958 52.1487 33.6458 52.3293 33.1931C52.3959 33.0264 52.4612 32.8597 52.5265 32.6917C52.671 32.3236 52.8154 31.9528 52.9585 31.5806C53.0237 31.4083 53.0904 31.2375 53.1557 31.0653C53.3182 30.6375 53.4793 30.2069 53.6404 29.775C53.6793 29.6722 53.7168 29.5694 53.7557 29.4667C53.9529 28.9306 54.1487 28.3917 54.3432 27.85C54.3959 27.7042 54.4473 27.5556 54.5001 27.4097C54.6446 27.0056 54.7876 26.6 54.9307 26.1931C54.996 26.0083 55.0598 25.8222 55.1251 25.6361C55.2626 25.2403 55.4001 24.8444 55.5362 24.4472C55.5918 24.2861 55.6473 24.125 55.7029 23.9625C55.8904 23.4111 56.0779 22.8597 56.264 22.3042C56.2793 22.2583 56.2946 22.2111 56.3098 22.1653C56.4835 21.6472 56.6571 21.1292 56.8293 20.6083C56.8904 20.4236 56.9515 20.2389 57.0126 20.0542C57.1432 19.6583 57.2737 19.2625 57.4043 18.8653C57.4668 18.6764 57.5293 18.4861 57.5904 18.2972C57.7376 17.85 57.8835 17.4028 58.0293 16.9556C58.0668 16.8389 58.1057 16.7236 58.1432 16.6069C58.3557 15.9542 58.5696 15.3014 58.7821 14.6486C58.9265 14.2069 59.071 13.7639 59.2154 13.3222C59.2779 13.1292 59.3418 12.9375 59.4043 12.7444C59.5376 12.3375 59.6709 11.9319 59.8043 11.5264C59.8626 11.3472 59.9223 11.1681 59.9807 10.9889C60.1682 10.4181 60.3571 9.84861 60.546 9.28056L58.0904 5.93333C57.9015 6.50139 57.7126 7.06944 57.5251 7.64028C57.4654 7.82083 57.4071 8.00139 57.3473 8.18056C57.214 8.58611 57.0807 8.99028 56.9487 9.39583C56.8862 9.58889 56.8223 9.78056 56.7598 9.97361C56.6154 10.4153 56.471 10.8569 56.3265 11.3C56.114 11.9528 55.9015 12.6056 55.6876 13.2583C55.6501 13.375 55.6112 13.4903 55.5737 13.6069C55.4279 14.0556 55.2807 14.5028 55.1348 14.95C55.0723 15.1389 55.0112 15.3264 54.9487 15.5153C54.8182 15.9139 54.6862 16.3125 54.5557 16.7097C54.4946 16.8931 54.4348 17.0764 54.3737 17.2583C54.2001 17.7806 54.0265 18.3028 53.8515 18.8236C53.8362 18.8667 53.8223 18.9111 53.8071 18.9556C53.621 19.5097 53.4335 20.0611 53.246 20.6125C53.1904 20.7764 53.1348 20.9375 53.0779 21.1014C52.9418 21.4986 52.8043 21.8944 52.6668 22.2903C52.6029 22.4764 52.5376 22.6611 52.4723 22.8458C52.3293 23.2528 52.1862 23.6569 52.0418 24.0611C51.989 24.2083 51.9362 24.3569 51.8835 24.5042C51.689 25.0458 51.4932 25.5833 51.296 26.1194C51.2571 26.225 51.2182 26.3278 51.1793 26.4333C51.0196 26.8639 50.8585 27.2931 50.696 27.7194C50.6307 27.8917 50.564 28.0639 50.4987 28.2347C50.3557 28.6069 50.2112 28.9778 50.0668 29.3458C50.0015 29.5125 49.9348 29.6806 49.8696 29.8472C49.689 30.3 49.5071 30.75 49.3237 31.1958C49.296 31.2625 49.2682 31.3319 49.2404 31.3986C49.0307 31.9069 48.8182 32.4083 48.6029 32.9069C48.5418 33.05 48.4793 33.1903 48.4168 33.3333C48.2598 33.6944 48.1015 34.0528 47.9404 34.4083C47.8432 34.6222 47.7473 34.8361 47.6501 35.0486C47.5932 35.1736 47.5348 35.2986 47.4779 35.4222C47.3376 35.7236 47.196 36.0236 47.0529 36.3208C47.0168 36.3958 46.9807 36.4722 46.9446 36.5472C46.7668 36.9153 46.5876 37.2792 46.4057 37.6389C46.3585 37.7333 46.3098 37.8264 46.2612 37.9208C46.1251 38.1889 45.9876 38.4556 45.8487 38.7181C45.7862 38.8361 45.7237 38.9542 45.6612 39.0722C45.5279 39.3222 45.3932 39.5694 45.2571 39.8153C45.1987 39.9208 45.1418 40.0264 45.0835 40.1306C44.8918 40.4736 44.6987 40.8125 44.5029 41.1458C44.496 41.1583 44.489 41.1694 44.4821 41.1806C44.2946 41.4986 44.1057 41.8125 43.9154 42.1222C43.8404 42.2444 43.764 42.3639 43.6876 42.4847C43.5543 42.6958 43.421 42.9069 43.2862 43.1139C43.2043 43.2403 43.121 43.3667 43.0376 43.4917C42.9057 43.6903 42.7723 43.8875 42.6376 44.0819C42.5529 44.2042 42.4682 44.3278 42.3835 44.4486C42.2432 44.6472 42.1029 44.8417 41.9612 45.0361C41.8807 45.1458 41.8001 45.2569 41.7196 45.3667C41.5668 45.5708 41.4126 45.7694 41.2571 45.9681C41.1807 46.0653 41.1057 46.1653 41.0293 46.2611C40.7973 46.5528 40.5626 46.8375 40.3237 47.1167L42.7793 50.4639C43.0182 50.1847 43.2529 49.8986 43.4848 49.6083C43.5612 49.5125 43.6362 49.4125 43.7126 49.3153C43.839 49.1528 43.9668 48.9931 44.0918 48.8278C44.1196 48.7903 44.1473 48.7514 44.1751 48.7139C44.2571 48.6056 44.3362 48.4944 44.4168 48.3833C44.5585 48.1889 44.7001 47.9944 44.839 47.7958C44.9237 47.675 45.0085 47.5514 45.0932 47.4292C45.2265 47.2347 45.3598 47.0375 45.4918 46.8389C45.5751 46.7139 45.6585 46.5875 45.7418 46.4597C45.8765 46.2528 46.0098 46.0431 46.1418 45.832C46.2182 45.7111 46.2946 45.5903 46.3696 45.4681C46.396 45.4236 46.4237 45.382 46.4515 45.3375C46.6154 45.0708 46.7765 44.8 46.9376 44.5264C46.9446 44.5139 46.9515 44.5028 46.9585 44.4917C47.1612 44.1556 47.3529 43.8167 47.5446 43.4736Z" fill="#C6DDF7"/>
<path d="M42.785 50.7736C42.7808 50.7736 42.7767 50.7736 42.7739 50.7736C42.678 50.7694 42.5905 50.7236 42.5336 50.6458L40.078 47.2986C39.9919 47.1819 39.9989 47.0208 40.0919 46.9111C40.3155 46.6486 40.5447 46.3722 40.7906 46.0639C40.8364 46.0069 40.8822 45.9472 40.9267 45.8889L41.0155 45.7736C41.1697 45.5764 41.3225 45.3792 41.4739 45.1778C41.5308 45.1014 41.5864 45.025 41.6433 44.9472L41.7142 44.85C41.8544 44.6569 41.9947 44.4639 42.1336 44.2667C42.2183 44.1458 42.303 44.025 42.3864 43.9028C42.5197 43.7097 42.6517 43.5139 42.7836 43.3167C42.8669 43.1917 42.9489 43.0681 43.0308 42.9417C43.1642 42.7361 43.2975 42.5264 43.4294 42.3167L43.4947 42.2125C43.5489 42.1278 43.6017 42.0431 43.6544 41.9569C43.8614 41.6208 44.0461 41.3139 44.2183 41.0208L44.2392 40.9861C44.4155 40.6847 44.6044 40.3542 44.8155 39.975C44.8544 39.9042 44.8947 39.8333 44.9336 39.7611L44.9878 39.6611C45.1225 39.4167 45.2572 39.1694 45.3892 38.9208C45.4517 38.8042 45.5142 38.6861 45.5767 38.5681C45.7142 38.3056 45.8517 38.0403 45.9878 37.7736L46.0461 37.6597C46.0739 37.6042 46.103 37.5486 46.1308 37.4931C46.3142 37.1278 46.4947 36.7625 46.6683 36.4056L46.7753 36.1806C46.9169 35.8847 47.0586 35.5861 47.1989 35.2847C47.2517 35.1722 47.303 35.0597 47.3558 34.9458L47.3711 34.9125C47.4683 34.7014 47.5642 34.4875 47.6614 34.2736C47.8211 33.9194 47.9794 33.5625 48.135 33.2028L48.203 33.0472C48.2419 32.9583 48.2808 32.8681 48.3197 32.7792C48.5475 32.2514 48.7544 31.7597 48.9544 31.275L49.0364 31.0722C49.2197 30.6278 49.4003 30.1792 49.5808 29.7278C49.6336 29.5972 49.685 29.4653 49.7364 29.3333L49.778 29.2278C49.9225 28.8597 50.0669 28.4903 50.21 28.1181L50.235 28.0528C50.2919 27.9028 50.3503 27.7528 50.4072 27.6028C50.5697 27.1778 50.7294 26.7486 50.8892 26.3181L51.0058 26.0056C51.203 25.4708 51.3975 24.9333 51.5919 24.3931L51.7503 23.95C51.8947 23.5472 52.0378 23.1417 52.1794 22.7361L52.3725 22.1805C52.51 21.7861 52.6461 21.3903 52.7822 20.9931L52.9503 20.5056C53.1378 19.9556 53.3253 19.4042 53.5114 18.85L53.5558 18.7194C53.7308 18.1986 53.9044 17.6778 54.078 17.1556L54.26 16.6069C54.3919 16.2097 54.5225 15.8111 54.653 15.4125L54.8392 14.8472C54.9864 14.4 55.1322 13.9528 55.278 13.5042L56.6517 9.29444C56.785 8.88888 56.9169 8.48333 57.0503 8.07777L57.228 7.53749C57.4155 6.96666 57.6044 6.39722 57.7933 5.83055C57.8308 5.71944 57.9253 5.63889 58.0419 5.62083C58.1572 5.60277 58.2739 5.65 58.3419 5.74444L60.7975 9.09166C60.8572 9.17361 60.8739 9.27916 60.8419 9.375C60.653 9.94305 60.4642 10.5125 60.2767 11.0819L60.1003 11.6194C59.9669 12.025 59.8336 12.4306 59.7003 12.8375L58.3267 17.0472C58.1808 17.4958 58.0336 17.9431 57.8878 18.3903L57.7017 18.9583C57.5711 19.3556 57.4405 19.7514 57.31 20.1472L57.1267 20.7014C56.9544 21.2222 56.7808 21.7417 56.6072 22.2583L56.56 22.3972C56.3739 22.9528 56.1864 23.5056 55.9975 24.0569L55.8308 24.5417C55.6947 24.9403 55.5572 25.3361 55.4197 25.7319L55.2253 26.2889C55.0822 26.6972 54.9392 27.1028 54.7947 27.5083L54.6378 27.95C54.4433 28.4931 54.2461 29.0333 54.0489 29.5694L53.9336 29.8778C53.7725 30.3111 53.6114 30.7417 53.4489 31.1708C53.3919 31.3208 53.3336 31.4708 53.2767 31.6208L53.2517 31.6875C53.1086 32.0611 52.9642 32.4319 52.8183 32.8014L52.7767 32.9083C52.7253 33.0403 52.6725 33.1722 52.6211 33.3028C52.4405 33.7569 52.2586 34.2069 52.0739 34.6542L51.9906 34.8583C51.7892 35.3444 51.5808 35.8389 51.3517 36.3708C51.3128 36.4611 51.2739 36.5514 51.2336 36.6403L51.1656 36.7972C51.0072 37.1597 50.8489 37.5194 50.6878 37.8764L50.6364 37.9944C50.6156 38.0417 50.5947 38.0889 50.5739 38.1347C50.5378 38.2139 50.5017 38.2903 50.4655 38.3681L50.3739 38.5653C50.3239 38.675 50.2739 38.7847 50.2225 38.8931C50.0808 39.1972 49.9392 39.4972 49.7947 39.7972L49.6878 40.0222C49.5142 40.3806 49.3322 40.7486 49.1475 41.1181C49.1183 41.1764 49.0892 41.2333 49.06 41.2903L49.0017 41.4042C48.8655 41.6722 48.7267 41.9389 48.5892 42.2028C48.5267 42.3222 48.4628 42.4403 48.4003 42.5597C48.2655 42.8111 48.1308 43.0597 47.9947 43.3069L47.9405 43.4056C47.9003 43.4778 47.8614 43.5514 47.8211 43.6236C47.6072 44.0056 47.4169 44.3389 47.2378 44.6444L47.2155 44.6805C47.0544 44.9556 46.8919 45.2278 46.728 45.4958L46.6461 45.6264C46.5919 45.7139 46.5378 45.8 46.4836 45.8875L46.4169 45.9931C46.2836 46.2056 46.1503 46.4167 46.0142 46.625C45.9308 46.7528 45.8475 46.8792 45.7628 47.0069C45.6294 47.2069 45.4961 47.4056 45.3614 47.6014C45.2767 47.725 45.1905 47.8486 45.1044 47.9708C44.9642 48.1708 44.8211 48.3681 44.678 48.5625L44.6072 48.6597C44.5503 48.7389 44.4919 48.8167 44.435 48.8944L44.3975 48.9444C44.3822 48.9667 44.3655 48.9875 44.3503 49.0083C44.2572 49.1319 44.1628 49.2514 44.0683 49.3722L43.8808 49.6125C43.8336 49.6736 43.7864 49.7361 43.7378 49.7958C43.4878 50.1083 43.2544 50.3917 43.0253 50.6597C42.9628 50.7333 42.8767 50.7736 42.785 50.7736ZM40.728 47.1278L42.803 49.9556C42.9461 49.7833 43.0933 49.6028 43.2475 49.4097C43.2933 49.3528 43.3392 49.2931 43.3836 49.2347L43.5739 48.9903C43.6655 48.8736 43.7572 48.7556 43.8489 48.6361L43.9322 48.5236C43.9892 48.4486 44.0447 48.3722 44.1003 48.2944L44.1725 48.1958C44.3128 48.0028 44.453 47.8097 44.5919 47.6125C44.6767 47.4917 44.7614 47.3708 44.8447 47.2486C44.978 47.0555 45.11 46.8597 45.2405 46.6625C45.3239 46.5375 45.4058 46.4125 45.4878 46.2861C45.6211 46.0806 45.753 45.8722 45.885 45.6625L45.9517 45.5555C46.0044 45.4708 46.0586 45.3861 46.1114 45.3L46.1919 45.1708C46.3544 44.9056 46.5155 44.6361 46.6739 44.3639L46.6947 44.3278C46.8711 44.0264 47.06 43.6958 47.2711 43.3181C47.31 43.2472 47.3503 43.1764 47.3892 43.1042L47.4447 43.0042C47.5794 42.7597 47.7142 42.5125 47.8461 42.2639C47.9086 42.1472 47.9711 42.0292 48.0336 41.9111C48.1711 41.65 48.3072 41.3847 48.4433 41.1194L48.503 41.0042C48.5322 40.9486 48.56 40.8931 48.5892 40.8361C48.7739 40.4708 48.9544 40.1042 49.1253 39.75L49.2322 39.5264C49.3753 39.2292 49.5155 38.9306 49.6558 38.6292C49.7058 38.5208 49.7558 38.4125 49.8058 38.3042L49.8975 38.1042C49.9322 38.0278 49.9683 37.9514 50.003 37.875C50.0225 37.8306 50.0419 37.7861 50.0628 37.7417C50.0808 37.7 50.0989 37.6583 50.1169 37.6181C50.2767 37.2639 50.435 36.9056 50.5919 36.5458L50.6614 36.3875C50.7003 36.2986 50.7392 36.2111 50.778 36.1208C51.0058 35.5917 51.2142 35.1 51.4128 34.6167L51.4947 34.4139C51.6781 33.9694 51.8586 33.5208 52.0392 33.0694C52.0905 32.9389 52.1419 32.8083 52.1933 32.6778L52.235 32.5694C52.3794 32.2014 52.5239 31.8319 52.6669 31.4597L52.6919 31.3931C52.7489 31.2444 52.8072 31.0944 52.8642 30.9444C53.0267 30.5181 53.1878 30.0875 53.3475 29.6569L53.4628 29.3486C53.66 28.8139 53.8558 28.275 54.0503 27.7347L54.2072 27.2944C54.3517 26.8903 54.4947 26.4861 54.6378 26.0792L54.8322 25.5236C54.9697 25.1292 55.1058 24.7319 55.2419 24.3361L55.4086 23.8528C55.5961 23.3028 55.7836 22.75 55.9697 22.1958L56.0155 22.0569C56.1892 21.5403 56.3614 21.0208 56.5336 20.5014L56.7169 19.9472C56.8475 19.5514 56.978 19.1556 57.1086 18.7583L57.2947 18.1903C57.4405 17.7431 57.5878 17.2958 57.7336 16.8486L59.1072 12.6389C59.2405 12.2319 59.3739 11.8264 59.5072 11.4208L59.6836 10.8833C59.8544 10.3639 60.0267 9.84444 60.1989 9.32777L58.1975 6.59861C58.0725 6.975 57.9475 7.35277 57.8239 7.73055L57.6461 8.27083C57.5128 8.67499 57.3808 9.08055 57.2475 9.48611L55.8739 13.6958C55.728 14.1444 55.5808 14.5917 55.435 15.0389L55.2489 15.6042C55.1183 16.0028 54.9864 16.4014 54.8544 16.7986L54.6725 17.3472C54.4989 17.8708 54.3253 18.3931 54.1503 18.9139L54.1058 19.0458C53.9197 19.6 53.7322 20.1528 53.5447 20.7042L53.3767 21.1931C53.2405 21.5903 53.103 21.9875 52.9655 22.3833L52.7711 22.9389C52.6281 23.3458 52.485 23.7514 52.3405 24.1556L52.1822 24.6C51.9878 25.1417 51.7919 25.6819 51.5947 26.2167L51.4781 26.5306C51.3183 26.9625 51.1572 27.3931 50.9947 27.8194C50.9378 27.9708 50.8794 28.1208 50.8211 28.2708L50.7961 28.3361C50.653 28.7097 50.5086 29.0806 50.3628 29.45L50.3211 29.5556C50.2683 29.6875 50.2169 29.8208 50.1642 29.9528C49.9836 30.4069 49.8017 30.8569 49.6169 31.3042L49.5336 31.5083C49.3322 31.9958 49.1225 32.4903 48.8947 33.0208C48.8558 33.1125 48.8155 33.2028 48.7753 33.2931L48.7072 33.4472C48.5489 33.8097 48.3905 34.1681 48.2294 34.525C48.1322 34.7403 48.035 34.9556 47.9378 35.1681L47.9239 35.2069C47.8711 35.3208 47.8183 35.4347 47.7655 35.5486C47.6239 35.8514 47.4822 36.1528 47.3392 36.4514L47.2308 36.6792C47.0572 37.0389 46.8753 37.4069 46.6892 37.775C46.66 37.8319 46.6308 37.8889 46.6017 37.9458L46.5447 38.0583C46.4072 38.3278 46.2697 38.5944 46.1308 38.8597C46.0683 38.9792 46.0044 39.0972 45.9419 39.2153C45.8072 39.4667 45.6725 39.7153 45.5364 39.9625L45.4822 40.0611C45.4419 40.1333 45.4017 40.2069 45.3614 40.2792C45.1475 40.6611 44.9572 40.9958 44.778 41.3L44.7572 41.3347C44.5822 41.6319 44.3961 41.9417 44.1864 42.2819C44.1322 42.3694 44.078 42.4569 44.0225 42.5444L43.9572 42.6472C43.8239 42.8597 43.6892 43.0722 43.553 43.2806C43.4697 43.4083 43.3864 43.5347 43.303 43.6611C43.1697 43.8611 43.0364 44.0597 42.9003 44.2556C42.8155 44.3792 42.7294 44.5028 42.6433 44.625C42.503 44.825 42.36 45.0222 42.2169 45.2167L42.1475 45.3125C42.0892 45.3917 42.0322 45.4708 41.9739 45.55C41.8197 45.7556 41.6642 45.9569 41.5072 46.1569L41.4197 46.2694C41.3725 46.3306 41.3253 46.3931 41.2767 46.4528C41.0864 46.6944 40.9044 46.9167 40.728 47.1278Z" fill="#E3EFFC"/>
<path d="M48.8419 15.6917L48.6585 16.8403H25.2627L25.446 15.6917H48.8419Z" fill="#1671D9"/>
<path d="M48.6586 17.1528H25.2628C25.1711 17.1528 25.085 17.1125 25.0253 17.0431C24.9655 16.9736 24.9405 16.8819 24.9544 16.7917L25.1378 15.6431C25.1614 15.4917 25.2933 15.3792 25.4461 15.3792H48.8419C48.9336 15.3792 49.0197 15.4194 49.0794 15.4889C49.1392 15.5583 49.1642 15.65 49.1503 15.7403L48.9669 16.8889C48.9433 17.0417 48.8128 17.1528 48.6586 17.1528ZM25.628 16.5278H48.3919L48.4753 16.0042H25.7114L25.628 16.5278Z" fill="#1671D9"/>
<path d="M45.9223 23.0181L45.739 24.1667H22.3418L22.5251 23.0181H45.9223Z" fill="#1671D9"/>
<path d="M45.7391 24.4792H22.3419C22.2502 24.4792 22.1641 24.4389 22.1044 24.3694C22.0446 24.3 22.0196 24.2083 22.0335 24.118L22.2169 22.9694C22.2405 22.8181 22.3724 22.7056 22.5252 22.7056H45.9224C46.0141 22.7056 46.1002 22.7458 46.1599 22.8153C46.2196 22.8847 46.2446 22.9764 46.2308 23.0667L46.0474 24.2153C46.0238 24.3681 45.8933 24.4792 45.7391 24.4792ZM22.7071 23.8542H45.4724L45.5558 23.3306H22.7919L22.7071 23.8542Z" fill="#1671D9"/>
<path d="M44.4623 26.6792L44.279 27.8278H20.8804L21.0637 26.6792H44.4623Z" fill="#1671D9"/>
<path d="M44.2791 28.1403H20.8804C20.7888 28.1403 20.7027 28.1 20.6429 28.0305C20.5832 27.9611 20.5582 27.8694 20.5721 27.7792L20.7554 26.6305C20.779 26.4792 20.911 26.3667 21.0638 26.3667H44.461C44.5527 26.3667 44.6388 26.4069 44.6985 26.4764C44.7582 26.5458 44.7832 26.6375 44.7693 26.7278L44.586 27.8764C44.5624 28.0292 44.4318 28.1403 44.2791 28.1403ZM21.2471 27.5153H44.0124L44.0957 26.9917H21.3304L21.2471 27.5153Z" fill="#1671D9"/>
<path d="M47.3818 19.3542L47.1999 20.5028H23.8013L23.9846 19.3542H47.3818Z" fill="#1671D9"/>
<path d="M47.1999 20.8153H23.8013C23.7097 20.8153 23.6236 20.775 23.5638 20.7056C23.5041 20.6361 23.4791 20.5444 23.493 20.4542L23.6763 19.3056C23.6999 19.1542 23.8319 19.0417 23.9847 19.0417H47.3819C47.4736 19.0417 47.5597 19.0819 47.6194 19.1514C47.6791 19.2208 47.7041 19.3125 47.6902 19.4028L47.5069 20.5514C47.4833 20.7042 47.3527 20.8153 47.1999 20.8153ZM24.168 20.1903H46.9333L47.0166 19.6667H24.2513L24.168 20.1903Z" fill="#1671D9"/>
</svg>
