<svg width="150" height="29" viewBox="0 0 150 29" fill="none" xmlns="http://www.w3.org/2000/svg">
<path d="M22 25.5H13.1025V15.1758C13.1026 14.229 13.3297 13.386 13.7842 12.6475C14.2387 11.8995 14.8544 11.317 15.6309 10.9004C16.4168 10.4743 17.3117 10.2617 18.3154 10.2617C18.751 10.2617 19.1865 10.2941 19.6221 10.3604C20.0576 10.4172 20.3608 10.4693 20.5312 10.5166V6.4541C20.323 6.4257 20.0342 6.40272 19.665 6.38379C19.3053 6.36486 18.9926 6.35548 18.7275 6.35547C17.4492 6.35547 16.3033 6.69617 15.29 7.37793C14.2863 8.05023 13.5852 8.97333 13.1875 10.1475H12.96V6.68164H8.85547V25.5H0V3.5H22V25.5Z" fill="#F56630"/>
<path d="M25.9176 23V5.54545H32.1392C33.4915 5.54545 34.6136 5.77841 35.5057 6.24432C36.4034 6.71023 37.0739 7.35511 37.517 8.17898C37.9602 8.99716 38.1818 9.94318 38.1818 11.017C38.1818 12.0852 37.9574 13.0256 37.5085 13.8381C37.0653 14.6449 36.3949 15.2727 35.4972 15.7216C34.6051 16.1705 33.483 16.3949 32.1307 16.3949H27.4176V14.1278H31.892C32.7443 14.1278 33.4375 14.0057 33.9716 13.7614C34.5114 13.517 34.9062 13.1619 35.1562 12.696C35.4062 12.2301 35.5312 11.6705 35.5312 11.017C35.5312 10.358 35.4034 9.78693 35.1477 9.30398C34.8977 8.82102 34.5028 8.4517 33.9631 8.19602C33.429 7.93466 32.7273 7.80398 31.858 7.80398H28.5511V23H25.9176ZM34.5341 15.125L38.8466 23H35.8466L31.6193 15.125H34.5341ZM46.6598 23.2642C45.37 23.2642 44.2592 22.9886 43.3274 22.4375C42.4013 21.8807 41.6854 21.0994 41.1797 20.0938C40.6797 19.0824 40.4297 17.8977 40.4297 16.5398C40.4297 15.1989 40.6797 14.017 41.1797 12.9943C41.6854 11.9716 42.3899 11.1733 43.2933 10.5994C44.2024 10.0256 45.2649 9.73864 46.4808 9.73864C47.2195 9.73864 47.9354 9.8608 48.6286 10.1051C49.3217 10.3494 49.9439 10.733 50.495 11.2557C51.0462 11.7784 51.4808 12.4574 51.799 13.2926C52.1172 14.1222 52.2763 15.1307 52.2763 16.3182V17.2216H41.87V15.3125H49.7791C49.7791 14.642 49.6428 14.0483 49.37 13.5312C49.0973 13.0085 48.7138 12.5966 48.2195 12.2955C47.7308 11.9943 47.157 11.8438 46.4979 11.8438C45.782 11.8438 45.157 12.0199 44.6229 12.3722C44.0945 12.7187 43.6854 13.1733 43.3956 13.7358C43.1115 14.2926 42.9695 14.8977 42.9695 15.5511V17.0426C42.9695 17.9176 43.1229 18.6619 43.4297 19.2756C43.7422 19.8892 44.1768 20.358 44.7337 20.6818C45.2905 21 45.9411 21.1591 46.6854 21.1591C47.1683 21.1591 47.6087 21.0909 48.0064 20.9545C48.4041 20.8125 48.7479 20.6023 49.0376 20.3239C49.3274 20.0455 49.549 19.7017 49.7024 19.2926L52.1143 19.7273C51.9212 20.4375 51.5746 21.0597 51.0746 21.5938C50.5803 22.1222 49.9581 22.5341 49.2081 22.8295C48.4638 23.1193 47.6143 23.2642 46.6598 23.2642ZM61.3338 9.90909V11.9545H53.9361V9.90909H61.3338ZM55.9645 23V8.39204C55.9645 7.57386 56.1435 6.89489 56.5014 6.35511C56.8594 5.80966 57.3338 5.40341 57.9247 5.13636C58.5156 4.86364 59.1577 4.72727 59.8509 4.72727C60.3622 4.72727 60.7997 4.76989 61.1634 4.85511C61.527 4.93466 61.7969 5.00852 61.973 5.0767L61.3764 7.1392C61.2571 7.10511 61.1037 7.06534 60.9162 7.01989C60.7287 6.96875 60.5014 6.94318 60.2344 6.94318C59.6151 6.94318 59.1719 7.09659 58.9048 7.40341C58.6435 7.71023 58.5128 8.15341 58.5128 8.73295V23H55.9645ZM63.9631 23V9.90909H66.4261V11.9886H66.5625C66.8011 11.2841 67.2216 10.7301 67.8239 10.3267C68.4318 9.91761 69.1193 9.71307 69.8864 9.71307C70.0455 9.71307 70.233 9.71875 70.4489 9.73011C70.6705 9.74148 70.8438 9.75568 70.9688 9.77273V12.2102C70.8665 12.1818 70.6847 12.1506 70.4233 12.1165C70.1619 12.0767 69.9006 12.0568 69.6392 12.0568C69.0369 12.0568 68.5 12.1847 68.0284 12.4403C67.5625 12.6903 67.1932 13.0398 66.9205 13.4886C66.6477 13.9318 66.5114 14.4375 66.5114 15.0057V23H63.9631ZM76.8665 23.2898C76.0369 23.2898 75.2869 23.1364 74.6165 22.8295C73.946 22.517 73.4148 22.0653 73.0227 21.4744C72.6364 20.8835 72.4432 20.1591 72.4432 19.3011C72.4432 18.5625 72.5852 17.9545 72.8693 17.4773C73.1534 17 73.5369 16.6222 74.0199 16.3438C74.5028 16.0653 75.0426 15.8551 75.6392 15.7131C76.2358 15.571 76.8438 15.4631 77.4631 15.3892C78.2472 15.2983 78.8835 15.2244 79.3722 15.1676C79.8608 15.1051 80.2159 15.0057 80.4375 14.8693C80.6591 14.733 80.7699 14.5114 80.7699 14.2045V14.1449C80.7699 13.4006 80.5597 12.8239 80.1392 12.4148C79.7244 12.0057 79.1051 11.8011 78.2812 11.8011C77.4233 11.8011 76.7472 11.9915 76.2528 12.3722C75.7642 12.7472 75.4261 13.1648 75.2386 13.625L72.8438 13.0795C73.1278 12.2841 73.5426 11.642 74.0881 11.1534C74.6392 10.6591 75.2727 10.3011 75.9886 10.0795C76.7045 9.85227 77.4574 9.73864 78.2472 9.73864C78.7699 9.73864 79.3239 9.80114 79.9091 9.92614C80.5 10.0455 81.0511 10.267 81.5625 10.5909C82.0795 10.9148 82.5028 11.3778 82.8324 11.9801C83.1619 12.5767 83.3267 13.3523 83.3267 14.3068V23H80.8381V21.2102H80.7358C80.571 21.5398 80.3239 21.8636 79.9943 22.1818C79.6648 22.5 79.2415 22.7642 78.7244 22.9744C78.2074 23.1847 77.5881 23.2898 76.8665 23.2898ZM77.4205 21.2443C78.125 21.2443 78.7273 21.1051 79.2273 20.8267C79.733 20.5483 80.1165 20.1847 80.3778 19.7358C80.6449 19.2812 80.7784 18.7955 80.7784 18.2784V16.5909C80.6875 16.6818 80.5114 16.767 80.25 16.8466C79.9943 16.9205 79.7017 16.9858 79.3722 17.0426C79.0426 17.0937 78.7216 17.142 78.4091 17.1875C78.0966 17.2273 77.8352 17.2614 77.625 17.2898C77.1307 17.3523 76.679 17.4574 76.2699 17.6051C75.8665 17.7528 75.5426 17.9659 75.2983 18.2443C75.0597 18.517 74.9403 18.8807 74.9403 19.3352C74.9403 19.9659 75.1733 20.4432 75.6392 20.767C76.1051 21.0852 76.6989 21.2443 77.4205 21.2443ZM86.7209 23V9.90909H89.1669V12.0398H89.3288C89.6016 11.3182 90.0476 10.7557 90.6669 10.3523C91.2862 9.94318 92.0277 9.73864 92.8913 9.73864C93.7663 9.73864 94.4993 9.94318 95.0902 10.3523C95.6868 10.7614 96.1271 11.3239 96.4112 12.0398H96.5476C96.8601 11.3409 97.3572 10.7841 98.0391 10.3693C98.7209 9.94886 99.5334 9.73864 100.477 9.73864C101.664 9.73864 102.633 10.1108 103.383 10.8551C104.138 11.5994 104.516 12.7216 104.516 14.2216V23H101.968V14.4602C101.968 13.5739 101.727 12.9318 101.244 12.5341C100.761 12.1364 100.184 11.9375 99.5135 11.9375C98.6839 11.9375 98.0391 12.1932 97.5788 12.7045C97.1186 13.2102 96.8885 13.8608 96.8885 14.6562V23H94.3487V14.2983C94.3487 13.5881 94.1271 13.017 93.6839 12.5852C93.2408 12.1534 92.6641 11.9375 91.9538 11.9375C91.4709 11.9375 91.0249 12.0653 90.6158 12.321C90.2124 12.571 89.8857 12.9205 89.6357 13.3693C89.3913 13.8182 89.2692 14.3381 89.2692 14.929V23H86.7209ZM113.574 23.2642C112.284 23.2642 111.173 22.9886 110.241 22.4375C109.315 21.8807 108.599 21.0994 108.094 20.0938C107.594 19.0824 107.344 17.8977 107.344 16.5398C107.344 15.1989 107.594 14.017 108.094 12.9943C108.599 11.9716 109.304 11.1733 110.207 10.5994C111.116 10.0256 112.179 9.73864 113.395 9.73864C114.134 9.73864 114.849 9.8608 115.543 10.1051C116.236 10.3494 116.858 10.733 117.409 11.2557C117.96 11.7784 118.395 12.4574 118.713 13.2926C119.031 14.1222 119.19 15.1307 119.19 16.3182V17.2216H108.784V15.3125H116.693C116.693 14.642 116.557 14.0483 116.284 13.5312C116.011 13.0085 115.628 12.5966 115.134 12.2955C114.645 11.9943 114.071 11.8438 113.412 11.8438C112.696 11.8438 112.071 12.0199 111.537 12.3722C111.009 12.7187 110.599 13.1733 110.31 13.7358C110.026 14.2926 109.884 14.8977 109.884 15.5511V17.0426C109.884 17.9176 110.037 18.6619 110.344 19.2756C110.656 19.8892 111.091 20.358 111.648 20.6818C112.205 21 112.855 21.1591 113.599 21.1591C114.082 21.1591 114.523 21.0909 114.92 20.9545C115.318 20.8125 115.662 20.6023 115.952 20.3239C116.241 20.0455 116.463 19.7017 116.616 19.2926L119.028 19.7273C118.835 20.4375 118.489 21.0597 117.989 21.5938C117.494 22.1222 116.872 22.5341 116.122 22.8295C115.378 23.1193 114.528 23.2642 113.574 23.2642ZM130.048 23H127.253L133.534 5.54545H136.577L142.858 23H140.062L135.128 8.71591H134.991L130.048 23ZM130.517 16.1648H139.585V18.3807H130.517V16.1648ZM148.012 5.54545V23H145.379V5.54545H148.012Z" fill="#F56630"/>
</svg>
