<svg width="16" height="16" viewBox="0 0 16 16" fill="none" xmlns="http://www.w3.org/2000/svg">
<path d="M14.3536 13.6462L11.2243 10.5175C12.1313 9.42856 12.5836 8.03186 12.487 6.61795C12.3905 5.20404 11.7526 3.88177 10.706 2.92622C9.65938 1.97067 8.28468 1.4554 6.86784 1.4876C5.451 1.5198 4.10112 2.09699 3.09901 3.0991C2.0969 4.10122 1.51971 5.4511 1.48751 6.86793C1.45531 8.28477 1.97058 9.65948 2.92613 10.7061C3.88168 11.7527 5.20395 12.3906 6.61786 12.4871C8.03177 12.5837 9.42846 12.1314 10.5174 11.2244L13.6461 14.3537C13.6926 14.4002 13.7478 14.437 13.8085 14.4622C13.8691 14.4873 13.9342 14.5003 13.9999 14.5003C14.0656 14.5003 14.1307 14.4873 14.1913 14.4622C14.252 14.437 14.3072 14.4002 14.3536 14.3537C14.4001 14.3073 14.437 14.2521 14.4621 14.1914C14.4872 14.1307 14.5002 14.0657 14.5002 14C14.5002 13.9343 14.4872 13.8692 14.4621 13.8085C14.437 13.7478 14.4001 13.6927 14.3536 13.6462ZM2.4999 6.99999C2.4999 6.10997 2.76382 5.23994 3.25829 4.49992C3.75275 3.7599 4.45556 3.18313 5.27782 2.84253C6.10009 2.50194 7.00489 2.41282 7.8778 2.58646C8.75072 2.76009 9.55254 3.18867 10.1819 3.81801C10.8112 4.44735 11.2398 5.24917 11.4134 6.12208C11.5871 6.995 11.498 7.8998 11.1574 8.72207C10.8168 9.54433 10.24 10.2471 9.49996 10.7416C8.75994 11.2361 7.88991 11.5 6.9999 11.5C5.80683 11.4987 4.66301 11.0241 3.81938 10.1805C2.97575 9.33688 2.50122 8.19306 2.4999 6.99999Z" fill="#101928"/>
</svg>
