<svg width="24" height="24" viewBox="0 0 24 24" fill="none" xmlns="http://www.w3.org/2000/svg">
<path d="M14.5791 2.32594C14.4529 2.26448 14.3121 2.23963 14.1726 2.25422C14.033 2.2688 13.9004 2.32223 13.7897 2.40844L7.24219 7.5H3C2.60218 7.5 2.22064 7.65804 1.93934 7.93934C1.65804 8.22065 1.5 8.60218 1.5 9V15C1.5 15.3978 1.65804 15.7794 1.93934 16.0607C2.22064 16.342 2.60218 16.5 3 16.5H7.24219L13.7897 21.5916C13.9005 21.6777 14.0332 21.731 14.1728 21.7455C14.3124 21.7599 14.4533 21.7349 14.5793 21.6733C14.7054 21.6116 14.8117 21.5159 14.8861 21.3969C14.9604 21.2778 14.9999 21.1403 15 21V3C15 2.8595 14.9606 2.72181 14.8861 2.60263C14.8117 2.48346 14.7053 2.38759 14.5791 2.32594ZM3 9H6.75V15H3V9ZM13.5 19.4663L8.25 15.3834V8.61656L13.5 4.53375V19.4663ZM18.5625 9.52125C19.1657 10.2061 19.4986 11.0874 19.4986 12C19.4986 12.9126 19.1657 13.7939 18.5625 14.4788C18.43 14.6243 18.2456 14.712 18.049 14.7228C17.8524 14.7336 17.6595 14.6667 17.5118 14.5365C17.3642 14.4063 17.2736 14.2233 17.2597 14.0269C17.2458 13.8305 17.3097 13.6366 17.4375 13.4869C17.7992 13.076 17.9988 12.5474 17.9988 12C17.9988 11.4526 17.7992 10.924 17.4375 10.5131C17.3097 10.3634 17.2458 10.1695 17.2597 9.97308C17.2736 9.77671 17.3642 9.59368 17.5118 9.46349C17.6595 9.33329 17.8524 9.26638 18.049 9.27719C18.2456 9.28799 18.43 9.37565 18.5625 9.52125ZM23.25 12C23.2511 13.8452 22.5711 15.6259 21.3403 17.0006C21.2067 17.1452 21.0216 17.2314 20.825 17.2407C20.6284 17.2501 20.436 17.1817 20.2893 17.0504C20.1426 16.9191 20.0535 16.7354 20.041 16.539C20.0286 16.3425 20.0939 16.1491 20.2228 16.0003C21.2066 14.9003 21.7505 13.4763 21.7505 12.0005C21.7505 10.5247 21.2066 9.10065 20.2228 8.00063C20.1553 7.92756 20.103 7.84178 20.0689 7.7483C20.0349 7.65481 20.0197 7.55549 20.0245 7.4561C20.0292 7.35672 20.0536 7.25927 20.0963 7.16942C20.1391 7.07957 20.1993 6.99912 20.2734 6.93277C20.3475 6.86641 20.4341 6.81546 20.5281 6.7829C20.6222 6.75033 20.7217 6.7368 20.821 6.74308C20.9203 6.74937 21.0173 6.77535 21.1065 6.81951C21.1957 6.86367 21.2751 6.92513 21.3403 7.00031C22.5714 8.37452 23.2515 10.155 23.25 12Z" fill="black"/>
</svg>
